<?xml version="1.0" encoding="UTF-8"?>
<svg width="671px" height="671px" viewBox="0 0 671 671" version="1.1" xmlns="http://www.w3.org/2000/svg" xmlns:xlink="http://www.w3.org/1999/xlink">
    <title>logo</title>
    <g id="Vueposu" stroke="none" stroke-width="1" fill="none" fill-rule="evenodd">
        <g id="logo" transform="translate(0.500000, 0.500000)">
            <rect id="矩形" fill-opacity="0" fill="#FFFFFF" x="0" y="0" width="670" height="670"></rect>
            <g id="内指针" transform="translate(160.769746, 322.512000)" fill-rule="nonzero" stroke-width="0.25">
                <polygon id="路径" stroke="#5CAF88" fill="#5CAF88" points="67.9 27 69.2 49.8 173.3 55.9 348.6 12.1 172.3 0"></polygon>
                <polygon id="路径" stroke="#53636F" fill="#53636F" points="0 44.9 16.4 39.9 69.2 30.4 70.2 44.6 15.7 46"></polygon>
            </g>
            <g id="整体" transform="translate(70.500000, 0.500000)" fill-rule="nonzero">
                <path d="M263.869746,668.112 C210.969746,667.412 156.769746,665.612 102.869746,659.912 C87.2697461,658.312 71.4697461,656.912 56.6697461,651.812 C41.4697461,646.612 26.7697461,639.812 15.9697461,626.912 C9.2697461,618.912 5.7697461,609.412 3.7697461,599.312 C2.4697461,593.012 6.9697461,589.012 11.5697461,585.912 C14.4697461,583.912 15.4697461,582.512 14.8697461,578.412 C13.8697461,571.012 15.9697461,563.512 18.4697461,556.412 C19.2697461,554.312 19.7697461,552.712 17.7697461,550.712 C15.2697461,548.212 16.3697461,545.212 18.6697461,543.212 C20.4697461,541.612 20.7697461,540.212 20.4697461,538.012 C16.0697461,507.012 16.1697461,475.912 16.5697461,444.712 C16.8697461,425.712 18.4697461,406.812 20.6697461,387.912 C20.8697461,386.512 21.4697461,385.112 19.6697461,384.012 C15.2697461,381.212 16.1697461,377.512 18.8697461,374.312 C20.2697461,372.712 20.1697461,371.712 19.5697461,370.012 C14.7697461,357.412 14.6697461,344.712 19.4697461,332.112 C20.0697461,330.412 20.0697461,329.612 18.5697461,328.412 C14.9697461,325.712 15.7697461,322.712 18.5697461,320.012 C20.0697461,318.612 21.2697461,317.712 20.7697461,315.112 C16.9697461,295.712 17.2697461,276.012 16.3697461,256.412 C15.3697461,235.112 15.9697461,213.812 17.3697461,192.512 C18.0697461,181.912 19.1697461,171.312 20.1697461,160.712 C20.3697461,158.312 20.6697461,156.212 18.2697461,154.612 C16.5697461,153.412 15.2697461,151.012 16.6697461,149.312 C19.4697461,146.012 17.3697461,143.212 16.7697461,140.112 C15.2697461,132.612 13.5697461,125.512 7.9697461,119.512 C2.4697461,113.612 4.2697461,105.812 5.1697461,98.512 C7.2697461,81.312 12.1697461,65.012 20.5697461,49.812 C23.5697461,44.312 27.7697461,40.412 33.4697461,37.812 C54.7697461,28.012 77.3697461,22.412 99.9697461,16.712 C128.469746,9.512 157.569746,6.312 186.669746,3.612 C226.069746,-0.088 265.469746,-0.788 304.969746,1.012 C332.569746,2.312 360.069746,5.012 387.469746,8.912 C421.169746,13.812 453.869746,22.412 485.969746,33.712 C499.569746,38.512 508.269746,47.112 513.469746,60.412 C519.169746,75.012 522.769746,89.912 524.369746,105.412 C525.169746,113.312 522.269746,119.512 516.769746,124.512 C513.369746,127.612 511.169746,130.812 510.869746,135.512 C510.769746,137.912 508.869746,140.412 509.169746,142.712 C509.969746,148.812 506.869746,154.412 506.769746,159.912 C506.669746,172.512 508.669746,185.112 509.569746,197.712 C511.369746,223.212 510.869746,248.612 509.669746,274.112 C508.969746,288.112 508.669746,302.112 505.869746,315.812 C505.369746,318.112 506.869746,318.612 507.969746,319.712 C510.969746,322.612 511.869746,325.712 507.969746,328.512 C506.169746,329.812 506.769746,330.812 507.369746,332.212 C512.069746,344.712 511.869746,357.212 507.269746,369.712 C506.569746,371.512 506.469746,372.712 508.069746,374.412 C510.769746,377.412 511.369746,381.212 507.369746,383.712 C505.069746,385.212 506.069746,386.812 506.269746,388.512 C510.969746,427.612 511.269746,466.912 509.469746,506.212 C508.969746,516.712 507.569746,527.112 506.469746,537.512 C506.269746,539.612 506.169746,541.112 508.069746,542.812 C510.669746,545.112 511.669746,548.212 508.669746,551.012 C506.969746,552.512 507.669746,553.812 508.169746,555.412 C510.669746,563.312 512.969746,571.312 511.869746,579.812 C511.569746,581.812 513.069746,581.912 514.069746,582.612 C527.569746,591.312 528.669746,594.212 523.569746,609.312 C518.169746,625.112 506.869746,635.112 492.369746,643.312 C469.269746,656.412 443.769746,657.712 418.669746,660.412 C367.769746,666.112 316.369746,667.612 263.869746,668.112 Z M64.6697461,148.312 C64.4697461,150.712 65.0697461,153.012 63.1697461,154.312 C59.9697461,156.412 60.6697461,159.312 60.8697461,162.212 C61.7697461,172.312 62.7697461,182.412 63.5697461,192.512 C65.4697461,217.612 65.3697461,242.812 64.2697461,267.912 C63.5697461,283.712 63.5697461,299.612 60.1697461,315.112 C59.6697461,317.612 60.4697461,318.612 62.0697461,320.112 C64.9697461,322.612 65.9697461,325.712 62.3697461,328.512 C60.5697461,329.812 60.7697461,330.812 61.4697461,332.612 C66.1697461,344.912 66.0697461,357.312 61.5697461,369.612 C60.8697461,371.512 60.2697461,372.812 62.1697461,374.812 C64.8697461,377.712 65.4697461,381.512 61.3697461,384.112 C59.2697461,385.412 60.1697461,386.912 60.2697461,388.412 C62.7697461,410.912 64.4697461,433.512 64.4697461,456.212 C64.5697461,483.712 64.1697461,511.212 60.3697461,538.512 C60.0697461,540.512 60.5697461,541.812 62.0697461,543.212 C64.6697461,545.612 65.5697461,548.612 62.4697461,551.512 C61.0697461,552.812 61.3697461,554.012 61.8697461,555.512 C62.6697461,557.712 63.7697461,559.912 63.8697461,562.212 C64.1697461,566.812 66.4697461,566.712 70.0697461,566.012 C92.9697461,561.212 116.069746,558.312 139.269746,556.012 C171.669746,552.712 204.069746,551.212 236.569746,550.512 C240.069746,550.412 241.069746,549.812 240.569746,546.012 C239.769746,540.412 239.569746,534.712 239.469746,529.112 C238.569746,492.912 238.769746,456.812 243.369746,420.812 C243.569746,419.112 243.469746,418.212 241.869746,417.112 C238.069746,414.512 238.669746,410.912 241.069746,408.112 C242.669746,406.212 242.769746,405.112 241.969746,403.012 C237.269746,390.512 237.269746,378.012 242.069746,365.512 C242.669746,363.912 242.769746,363.012 241.169746,361.812 C237.369746,358.912 238.469746,355.812 241.469746,353.012 C242.669746,351.912 243.769746,351.212 243.369746,349.012 C240.569746,335.712 240.369746,322.212 239.569746,308.812 C237.269746,271.012 238.569746,233.212 242.469746,195.612 C242.769746,192.512 243.569746,189.412 240.169746,187.212 C238.869746,186.412 238.169746,184.212 239.069746,183.212 C242.569746,179.312 239.569746,175.812 238.969746,172.112 C238.569746,169.712 237.469746,168.912 234.969746,168.812 C224.469746,168.412 213.969746,167.712 203.569746,167.112 C157.269746,164.412 110.769746,159.712 64.6697461,148.312 Z M466.469746,158.412 C466.569746,157.912 466.569746,156.712 465.369746,155.712 C464.269746,154.812 462.769746,153.412 462.769746,152.212 C462.669746,148.512 460.769746,149.112 458.269746,149.712 C430.669746,156.312 402.669746,160.312 374.469746,163.212 C346.969746,166.012 319.269746,167.212 291.669746,168.712 C290.369746,168.812 288.269746,168.312 288.169746,169.812 C287.869746,173.812 283.569746,177.412 287.069746,181.912 C288.569746,183.812 287.669746,186.312 285.769746,187.712 C283.469746,189.412 283.569746,191.412 283.769746,193.812 C284.769746,204.412 285.869746,215.012 286.669746,225.612 C288.569746,250.712 288.469746,275.912 287.369746,301.012 C286.669746,316.812 286.569746,332.712 283.269746,348.212 C282.769746,350.712 283.769746,351.712 285.269746,353.112 C288.069746,355.712 289.169746,358.812 285.469746,361.512 C283.669746,362.912 283.969746,363.912 284.569746,365.612 C289.169746,377.912 289.169746,390.312 284.569746,402.612 C283.869746,404.512 283.469746,405.812 285.269746,407.812 C287.869746,410.712 288.469746,414.412 284.369746,417.112 C282.969746,418.012 283.069746,419.012 283.169746,420.512 C284.169746,430.912 285.269746,441.412 286.069746,451.812 C288.369746,483.312 287.969746,514.712 285.969746,546.212 C285.769746,549.212 285.969746,550.312 289.269746,550.312 C298.069746,550.312 306.969746,550.712 315.769746,551.012 C361.269746,552.712 406.569746,556.212 451.469746,564.212 C454.769746,564.812 458.569746,566.612 461.069746,565.412 C463.669746,564.212 462.969746,559.412 464.269746,556.412 C464.969746,554.912 466.269746,553.412 464.169746,551.512 C461.069746,548.812 461.969746,545.712 464.569746,543.212 C466.069746,541.812 466.569746,540.512 466.369746,538.512 C464.369746,521.112 462.869746,503.812 462.569746,486.212 C461.869746,453.812 462.569746,421.612 466.369746,389.412 C466.669746,386.912 466.969746,385.012 464.269746,383.112 C461.269746,381.012 462.069746,377.112 464.469746,374.712 C466.469746,372.812 465.969746,371.512 465.269746,369.612 C460.669746,357.312 460.669746,344.912 465.269746,332.612 C465.869746,330.912 466.269746,329.812 464.469746,328.512 C460.869746,325.812 461.869746,322.812 464.669746,320.112 C465.969746,318.912 467.169746,318.212 466.769746,315.712 C462.069746,288.812 462.269746,261.612 461.869746,234.512 C461.569746,209.412 463.769746,184.312 466.469746,158.412 Z" id="形状" stroke="#5C4749" stroke-width="0.5" fill="#5C4749"></path>
                <g id="编组">
                    <g transform="translate(0.000000, 549.012000)" id="路径" stroke-width="0.25">
                        <path d="M37.5697461,96.9 C18.8697461,90.4 7.1697461,77.3 1.5697461,58.5 C1.5697461,58.3 1.4697461,58.2 1.4697461,58 C-1.6302539,46 -0.330253896,42.6 10.2697461,35.7 C11.4697461,34.9 12.5697461,33.9 13.6697461,33 C14.7697461,32.7 15.9697461,32.7 16.9697461,32.2 C27.6697461,26.8 39.1697461,23.6 50.6697461,20.8 C54.2697461,19.9 57.8697461,18.9 61.4697461,18 C64.5697461,18.3 65.5697461,16.5 65.5697461,13.8 C66.4697461,16.3 67.6697461,16.9 70.6697461,16.4 C84.5697461,13.9 98.4697461,11.7 112.469746,9.9 C126.769746,8 141.169746,6.6 155.469746,5.1 C164.769746,4.4 174.169746,3.8 183.469746,3.1 C202.069746,2.4 220.769746,1.7 239.369746,1 C252.769746,1 266.069746,1 279.469746,1 C282.069746,0.7 284.669746,0.3 287.369746,0 C288.569746,0.4 289.769746,1 290.969746,1.1 C300.969746,1.5 310.869746,1.6 320.769746,2.1 C334.069746,2.7 347.269746,3.4 360.469746,4 C364.769746,4.3 369.169746,4.7 373.469746,5 C385.969746,6.3 398.469746,7.6 410.969746,9 C417.869746,9.8 424.669746,10.9 431.569746,11.9 C429.669746,12 427.769746,12.2 425.769746,12.3 C427.169746,22.6 423.869746,31.3 418.569746,39.3 C411.069746,50.5 401.069746,59.3 389.569746,66.1 C383.469746,69.7 377.369746,74.5 369.469746,74 C356.369746,73.3 343.269746,72.5 330.169746,72 C313.669746,71.5 297.269746,71 280.769746,71 C259.969746,71 239.169746,71.5 218.369746,71.9 C204.069746,72.2 189.769746,72.6 175.469746,72.9 C174.969746,72.9 174.469746,72.9 173.969746,73 C159.969746,74 145.869746,74.9 131.869746,75.9 C123.069746,76.5 114.369746,77.1 105.669746,78.1 C94.1697461,79.5 82.6697461,80.8 71.3697461,83.1 C61.5697461,85.1 51.8697461,88.3 42.2697461,91.1 C39.6697461,91.9 37.8697461,93.9 37.5697461,96.9 Z" stroke="#846963" fill="#836963"></path>
                        <path d="M37.6697461,95.9 C37.9697461,92.9 39.6697461,90.9 42.4697461,90.1 C52.1697461,87.3 61.7697461,84.1 71.5697461,82.1 C82.8697461,79.8 94.3697461,78.5 105.869746,77.1 C114.569746,76.1 123.369746,75.6 132.069746,74.9 C146.069746,73.9 160.169746,72.9 174.169746,72 C174.669746,72 175.169746,72 175.669746,71.9 C189.969746,71.6 204.269746,71.1 218.569746,70.9 C239.369746,70.5 260.169746,70 280.969746,70 C297.469746,70 313.869746,70.4 330.369746,71 C343.469746,71.4 356.569746,72.3 369.669746,73 C370.269746,73.3 370.769746,73.8 371.369746,73.9 C382.969746,74.6 394.469746,75.3 406.069746,76 C410.869746,76.3 415.669746,76.5 420.369746,77.1 C429.669746,78.3 438.969746,79.9 448.269746,80.9 C460.869746,82.2 473.169746,84.7 484.869746,89.4 C487.569746,90.5 489.369746,93.7 491.669746,96 C488.369746,100.2 483.569746,101.9 478.669746,102.9 C464.369746,105.9 449.969746,109 435.469746,110.9 C400.469746,115.5 365.169746,117.5 329.769746,118.3 C296.769746,119.1 263.769746,120.3 230.869746,119.5 C184.569746,118.5 138.269746,116.7 92.2697461,110.7 C78.2697461,108.9 64.4697461,105.7 50.5697461,102.8 C45.7697461,101.9 40.9697461,100.2 37.6697461,95.9 Z" stroke="#5C4749" fill="#5C4749"></path>
                        <path d="M491.569746,97 C489.369746,94.7 487.469746,91.5 484.769746,90.4 C473.069746,85.8 460.769746,83.2 448.169746,81.9 C438.869746,80.9 429.569746,79.3 420.269746,78.1 C415.469746,77.5 410.769746,77.3 405.969746,77 C394.369746,76.3 382.869746,75.6 371.269746,74.9 C370.669746,74.9 370.169746,74.3 369.569746,74 C377.469746,74.5 383.469746,69.7 389.669746,66.1 C401.169746,59.3 411.169746,50.5 418.669746,39.3 C423.969746,31.3 427.269746,22.6 425.869746,12.3 C427.869746,12.2 429.769746,12 431.669746,11.9 C439.969746,13.3 448.269746,14.7 456.569746,16.1 C457.169746,16.4 457.669746,16.8 458.269746,16.9 C466.069746,18.2 473.969746,19 481.569746,20.9 C490.369746,23.1 498.869746,26.2 507.569746,28.9 C509.669746,30.2 511.869746,31.5 513.969746,32.8 C518.069746,35.6 522.269746,38.2 526.169746,41.3 C529.169746,43.8 530.169746,47.4 529.469746,51.3 C525.269746,73 513.569746,88.7 492.569746,96.8 C492.269746,97 491.869746,96.9 491.569746,97 Z" stroke="#6A544F" fill="#6A544F"></path>
                    </g>
                    <g transform="translate(2.464661, 0.000000)" id="路径">
                        <path d="M8.30508462,125.912 C6.20508462,123.012 4.10508462,120.012 2.10508462,117.012 C1.00508462,109.812 3.90508462,104.212 9.60508462,100.112 C14.4050846,96.612 19.4050846,92.912 24.8050846,90.812 C37.1050846,86.012 49.6050846,81.312 62.4050846,78.112 C77.9050846,74.212 93.8050846,71.512 109.605085,68.912 C123.805085,66.512 138.005085,64.612 152.305085,63.012 C164.505085,61.612 176.705085,60.612 188.905085,60.012 C206.005085,59.112 223.005085,58.212 240.105085,58.012 C260.605085,57.812 281.005085,58.512 301.405085,58.912 C312.705085,59.112 324.005085,59.512 335.305085,60.012 C340.405085,60.212 345.605085,60.612 350.705085,61.112 C362.505085,62.312 374.405085,63.512 386.205085,65.012 C397.705085,66.412 409.205085,67.812 420.605085,69.712 C431.905085,71.512 443.005085,73.912 454.205085,76.012 C457.805085,77.012 461.405085,78.012 465.005085,79.012 C479.205085,82.812 493.205085,87.212 506.105085,94.412 C514.405085,99.112 521.805085,104.412 523.205085,114.812 C521.605085,119.812 519.205085,124.312 514.505085,127.212 C514.105085,126.512 513.305085,125.912 513.305085,125.212 C513.305085,117.012 508.005085,113.012 501.305085,110.612 C489.105085,106.312 476.805085,106.412 464.905085,111.312 C458.405085,113.912 454.105085,119.412 455.305085,127.012 C456.105085,132.012 457.105085,137.112 458.505085,142.012 C458.905085,143.612 461.005085,144.712 462.205085,146.012 C459.505085,147.712 456.905085,149.412 454.205085,151.112 C448.405085,152.412 442.705085,154.012 436.805085,155.012 C422.905085,157.412 409.105085,159.612 395.205085,161.912 C393.105085,161.312 390.605085,161.112 388.805085,160.012 C376.305085,151.512 362.905085,144.712 349.005085,138.912 C327.005085,129.612 303.905085,124.012 280.205085,122.412 C260.905085,121.112 241.505085,121.412 222.305085,125.112 C191.505085,131.112 162.705085,142.012 136.505085,159.512 C134.405085,160.912 131.705085,161.212 129.305085,162.012 C120.905085,160.712 112.505085,159.612 104.205085,158.112 C91.5050846,155.712 78.9050846,152.912 66.2050846,150.212 C64.5050846,149.212 62.9050846,148.112 61.2050846,147.112 C61.2050846,146.812 61.2050846,146.412 61.2050846,146.112 C61.9050846,145.112 63.0050846,144.112 63.3050846,143.012 C64.7050846,138.212 66.1050846,133.512 67.1050846,128.612 C68.6050846,121.012 63.9050846,114.012 56.5050846,111.012 C47.5050846,107.312 38.1050846,107.412 29.0050846,108.412 C21.0050846,109.312 12.9050846,112.112 10.0050846,121.412 C9.50508462,122.912 8.90508462,124.412 8.30508462,125.912 Z" stroke="#5C4749" stroke-width="0.5" fill="#5C4749"></path>
                        <path d="M454.105085,76.012 C442.905085,73.912 431.705085,71.512 420.505085,69.712 C409.105085,67.912 397.605085,66.412 386.105085,65.012 C374.305085,63.612 362.505085,62.312 350.605085,61.112 C345.505085,60.612 340.405085,60.212 335.205085,60.012 C323.905085,59.612 312.605085,59.212 301.305085,58.912 C280.805085,58.512 260.405085,57.912 240.005085,58.012 C222.905085,58.112 205.805085,59.012 188.805085,60.012 C176.605085,60.712 164.405085,61.612 152.205085,63.012 C137.905085,64.612 123.705085,66.512 109.505085,68.912 C93.7050846,71.512 77.8050846,74.212 62.3050846,78.112 C49.5050846,81.312 37.0050846,86.012 24.7050846,90.812 C19.2050846,92.912 14.3050846,96.612 9.50508462,100.112 C3.90508462,104.212 0.905084624,109.712 2.00508462,117.012 C1.30508462,114.712 -0.0949153759,112.312 0.00508462409,110.012 C0.905084624,87.912 6.50508462,67.012 17.8050846,47.812 C20.3050846,43.612 23.9050846,40.912 28.2050846,38.812 C45.8050846,30.212 64.6050846,24.912 83.5050846,20.212 C100.105085,16.112 116.805085,12.212 133.705085,9.512 C150.405085,6.812 167.405085,5.412 184.305085,3.712 C216.005085,0.512 247.705085,-0.488 279.605085,0.212 C312.705085,1.012 345.705085,3.712 378.605085,7.812 C401.105085,10.612 423.105085,15.812 445.005085,21.112 C445.505085,21.212 445.905085,21.612 446.305085,21.812 C443.205085,22.212 444.805085,24.212 445.205085,25.512 C447.005085,30.812 449.105085,36.112 450.805085,41.412 C454.505085,52.512 456.405085,64.012 457.505085,75.912 C456.105085,76.012 455.105085,76.012 454.105085,76.012 Z" stroke="#846963" stroke-width="0.5" fill="#836963"></path>
                        <path d="M454.105085,76.012 C455.105085,76.012 456.105085,76.012 457.505085,76.012 C456.405085,64.112 454.505085,52.612 450.805085,41.512 C449.005085,36.212 447.005085,30.912 445.205085,25.612 C444.805085,24.312 443.105085,22.312 446.305085,21.912 C464.005085,26.112 481.305085,31.312 497.505085,39.812 C501.105085,41.712 504.505085,45.012 506.705085,48.512 C518.205085,67.212 523.305085,87.912 524.305085,109.712 C524.405085,111.312 523.505085,113.112 523.105085,114.712 C521.705085,104.312 514.305085,99.012 506.005085,94.312 C493.105085,87.012 479.105085,82.712 464.905085,78.912 C461.305085,78.012 457.705085,77.012 454.105085,76.012 Z" stroke="#70594A" stroke-width="0.5" fill="#705954"></path>
                        <path d="M350.805085,165.112 C349.405085,165.512 348.105085,166.212 346.705085,166.312 C334.905085,166.912 323.105085,167.512 311.305085,168.112 C303.705085,168.112 296.205085,168.112 288.505085,168.112 C289.105085,163.812 290.305085,160.212 289.805085,156.712 C289.405085,153.412 287.305085,150.312 286.005085,147.112 C286.705085,147.112 287.305085,147.012 288.005085,147.012 C301.405085,148.012 314.305085,151.312 326.805085,155.712 C335.005085,158.512 342.905085,162.012 350.805085,165.112 Z" fill="#6F6260"></path>
                        <path d="M235.105085,147.012 C235.505085,147.212 236.005085,147.412 236.405085,147.512 C232.005085,153.312 232.105085,159.812 232.905085,166.512 C232.905085,166.812 232.605085,167.112 232.105085,168.012 C225.905085,168.012 219.405085,168.012 212.805085,168.012 C199.905085,167.312 187.005085,166.612 174.105085,165.912 C173.505085,165.912 173.005085,165.312 172.405085,165.012 C190.705085,156.512 209.705085,150.412 229.705085,147.212 C231.505085,147.112 233.305085,147.112 235.105085,147.012 Z" fill="#6F6260"></path>
                    </g>
                    <g transform="translate(10.769746, 107.672676)" id="路径">
                        <path d="M8.7,432.339324 C7.7,425.139324 6.5,417.939324 5.9,410.739324 C3.3,379.339324 3.1,347.939324 5.1,316.539324 C5.9,303.739324 7.6,291.039324 8.9,278.339324 C9.5,278.139324 10.2,278.139324 10.8,277.839324 C21.5,272.839324 32.5,272.039324 43.8,275.339324 C45.2,285.439324 46.8,295.639324 47.8,305.739324 C49.1,318.439324 50,331.139324 50.7,343.839324 C51,348.239324 50,352.739324 49.8,357.239324 C49.4,370.039324 49.4,382.839324 48.7,395.639324 C48.2,404.839324 46.9,414.039324 45.6,423.239324 C44.7,429.739324 44.4,429.739324 37.5,428.539324 C36.5,428.339324 35.5,428.539324 34.5,428.439324 C25.6,427.639324 17.1,429.739324 8.7,432.339324 Z" stroke="#755C58" stroke-width="0.5" fill="#755C58"></path>
                        <path d="M4.8,220.439324 C2.6,217.539324 4.1,215.239324 6.3,213.639324 C8.5,212.039324 8.8,210.439324 8.5,207.739324 C7.1,196.239324 5.7,184.639324 4.9,173.039324 C4,160.939324 3.2,148.739324 3.4,136.639324 C3.7,118.139324 4.7,99.7393243 5.6,81.2393243 C6,72.7393243 7,64.3393243 7.8,55.9393243 C8,54.3393243 8.4,52.7393243 8.7,51.1393243 C9.7,52.7393243 10.5,54.6393243 11.9,55.7393243 C19.2,61.1393243 26.9,66.0393243 34,71.6393243 C37.7,74.5393243 42.4,76.5393243 43.5,82.4393243 C46.4,97.0393243 48.3,111.739324 48.8,126.539324 C49.2,137.639324 48.9,148.839324 48.9,159.939324 C48.9,161.439324 48.9,162.939324 48.7,164.439324 C47.8,172.339324 46.9,180.139324 45.8,187.939324 C45,194.139324 43.8,200.239324 42.8,206.439324 C42.5,206.439324 42.2,206.439324 41.8,206.439324 C33,203.139324 24.2,203.739324 15.4,206.339324 C13.3,206.939324 11.7,209.039324 9.8,210.439324 C10.6,211.439324 11.4,212.339324 12.1,213.339324 C11.3,214.439324 10.5,215.439324 9.7,216.539324 C8.1,217.739324 6.4,219.039324 4.8,220.439324 Z" stroke="#755C58" stroke-width="0.5" fill="#755C58"></path>
                        <path d="M7.9,264.339324 C2.1,252.139324 2.1,239.739324 6.5,227.139324 C7,225.639324 7.2,224.039324 7.6,222.439324 C18.7,215.639324 30.5,214.639324 42.9,218.239324 C43.2,218.539324 43.6,218.939324 43.9,219.239324 C44.5,220.739324 45.2,222.239324 45.6,223.839324 C48.3,235.239324 47.7,246.739324 46.7,258.239324 C46.4,261.039324 45.3,262.639324 41.4,261.739324 C30.4,258.939324 19.5,260.239324 9,264.339324 C8.5,264.339324 8.2,264.339324 7.9,264.339324 Z" stroke="#755C58" stroke-width="0.5" fill="#755C58"></path>
                        <path d="M51.2,458.939324 C47.6,459.839324 44,460.839324 40.4,461.739324 C28.8,464.539324 17.4,467.739324 6.7,473.139324 C5.7,473.639324 4.5,473.639324 3.4,473.939324 C3.1,471.439324 2.2,468.739324 2.7,466.339324 C3.9,459.939324 5.7,453.639324 7.3,447.239324 C7.5,446.539324 7.3,445.639324 7.3,444.939324 C10,444.239324 12.7,443.539324 15.4,442.739324 C25,440.139324 34.7,439.939324 44.2,442.939324 C44.5,443.239324 44.9,443.639324 45.2,443.939324 C46.2,448.239324 47,452.539324 48.3,456.739324 C48.5,457.639324 50.2,458.239324 51.2,458.939324 Z" stroke="#755C58" stroke-width="0.5" fill="#755C58"></path>
                        <path d="M8.8,264.339324 C9.4,264.639324 10.3,265.439324 10.7,265.239324 C20.8,261.339324 31.1,261.639324 41.5,263.339324 C43.6,263.639324 46,263.639324 45.4,267.039324 C44.8,270.439324 42.5,270.939324 39.9,270.139324 C29.1,266.939324 19.1,269.639324 9.2,273.739324 C7.9,274.239324 6.9,275.539324 5.8,276.439324 C3.5,273.339324 4.2,270.439324 6.5,267.639324 C7.2,266.739324 7.5,265.439324 7.9,264.339324 C8.2,264.339324 8.5,264.339324 8.8,264.339324 Z" stroke="#755C58" stroke-width="0.5" fill="#755C58"></path>
                        <path d="M8.8,434.339324 C17.6,430.139324 27,429.939324 36.4,430.339324 C38.7,430.439324 40.9,430.939324 43.5,431.339324 C42.8,433.639324 42.3,435.439324 41.8,437.339324 C36.4,437.039324 31,436.739324 25.6,436.339324 C19.2,435.839324 13.7,438.239324 8.3,441.239324 C7.2,441.839324 6.6,443.339324 5.8,444.439324 C2.7,442.139324 3.9,439.639324 5.6,437.239324 C6.4,436.139324 7.7,435.339324 8.8,434.339324 Z" stroke="#755C58" stroke-width="0.5" fill="#755C58"></path>
                        <path d="M39.8,207.339324 C42.5,207.539324 43.3,209.439324 42.6,211.439324 C42.3,212.439324 39.9,213.539324 38.9,213.239324 C28.6,209.739324 19.3,213.639324 9.8,216.439324 C10.6,215.439324 11.4,214.339324 12.2,213.239324 C11.4,212.339324 10.6,211.339324 9.9,210.339324 C10.5,210.239324 11.3,210.239324 11.8,209.839324 C20.7,204.939324 30.2,205.739324 39.8,207.339324 Z" stroke="#755C58" stroke-width="0.5" fill="#745B58"></path>
                        <g transform="translate(0.000000, 0.000000)">
                            <path d="M42.8,206.339324 C43.8,200.239324 44.9,194.039324 45.8,187.839324 C46.9,180.039324 47.7,172.139324 48.7,164.339324 C48.9,162.839324 48.9,161.339324 48.9,159.839324 C48.9,148.739324 49.2,137.539324 48.8,126.439324 C48.3,111.639324 46.4,96.9393243 43.5,82.3393243 C42.3,76.4393243 37.7,74.4393243 34,71.5393243 C26.9,65.9393243 19.2,61.0393243 11.9,55.6393243 C10.5,54.6393243 9.8,52.6393243 8.7,51.0393243 C8.4,50.4393243 8.1,49.9393243 7.9,49.3393243 C9.9,48.5393243 11.9,47.7393243 13.8,46.8393243 C26.8,40.9393243 39.3,41.4393243 50.9,50.2393243 C51.2,51.8393243 51.7,53.4393243 51.8,55.1393243 C53.2,71.8393243 54.6,88.5393243 56,105.239324 C56,117.539324 56.2,129.839324 55.9,142.039324 C55.4,159.139324 54.5,176.139324 53.8,193.139324 C52.8,198.139324 51.8,203.139324 50.8,208.139324 C48.1,207.639324 45.4,207.039324 42.8,206.339324 Z" stroke="#644E4B" stroke-width="0.25" fill="#644E4B"></path>
                            <path d="M0,18.2393243 C0.5,16.7393243 1.2,15.2393243 1.6,13.6393243 C4.5,4.33932429 12.6,1.53932429 20.6,0.639324286 C29.7,-0.460675714 39.1,-0.460675714 48.1,3.23932429 C55.4,6.23932429 60.2,13.2393243 58.7,20.8393243 C57.8,25.7393243 56.3,30.4393243 54.9,35.2393243 C54.6,36.3393243 53.5,37.3393243 52.8,38.3393243 C52.4,37.8393243 52.1,37.1393243 51.6,36.8393243 C42.8,31.3393243 33.1,30.1393243 23.1,31.9393243 C18.9,32.6393243 14.9,34.8393243 10.8,36.4393243 C9.3,37.1393243 7.8,37.8393243 6.3,38.5393243 C5.1,34.4393243 3.9,30.3393243 2.6,26.2393243 C1.8,23.5393243 0.9,20.9393243 0,18.2393243 Z" stroke="#644E4B" stroke-width="0.25" fill="#644E4B"></path>
                            <path d="M8.7,432.339324 C17.1,429.739324 25.6,427.639324 34.6,428.339324 C35.6,428.439324 36.6,428.339324 37.6,428.439324 C44.4,429.539324 44.7,429.639324 45.7,423.139324 C47,413.939324 48.3,404.839324 48.8,395.539324 C49.5,382.739324 49.5,369.939324 49.9,357.139324 C50.1,352.639324 51,348.239324 50.8,343.739324 C50.1,331.039324 49.2,318.339324 47.9,305.639324 C46.9,295.439324 45.2,285.339324 43.9,275.239324 L43.9,275.239324 C46.5,276.439324 48.8,278.439324 52,277.339324 C51.6,278.039324 50.8,278.739324 50.9,279.439324 C51.4,284.139324 52.2,288.839324 52.8,293.439324 C53.9,314.739324 54.9,336.039324 56,357.339324 C55.7,366.139324 55.7,374.939324 55.1,383.639324 C54.1,399.339324 52.9,415.039324 51.5,430.739324 C51.3,433.239324 51.2,434.839324 53.4,436.739324 C55.7,438.739324 57.2,441.539324 53.9,444.339324 C50.6,442.339324 47.2,440.339324 43.9,438.339324 C43.2,438.039324 42.6,437.639324 41.9,437.339324 C42.4,435.539324 43,433.739324 43.6,431.339324 C40.9,430.939324 38.7,430.439324 36.5,430.339324 C27,429.839324 17.7,430.039324 8.9,434.339324 C8.7,433.639324 8.7,433.039324 8.7,432.339324 Z" stroke="#644E4B" stroke-width="0.25" fill="#644E4B"></path>
                            <path d="M8.8,264.339324 C19.4,260.239324 30.2,259.039324 41.2,261.739324 C45.1,262.739324 46.3,261.139324 46.5,258.239324 C47.5,246.739324 48.2,235.239324 45.4,223.839324 C45,222.239324 44.3,220.739324 43.7,219.239324 C46.4,220.239324 49.2,221.339324 51.9,222.339324 C52.2,223.739324 52.2,225.239324 52.7,226.539324 C56.9,237.339324 56.9,248.239324 53.6,259.139324 C52.9,261.439324 52,263.739324 51.2,265.939324 C55.8,270.639324 56.1,273.339324 52.6,276.939324 C50.2,274.939324 47.9,273.039324 44.7,270.339324 C44.2,272.839324 43.9,274.039324 43.7,275.239324 L43.7,275.239324 C32.4,271.939324 21.4,272.739324 10.7,277.739324 C10.1,278.039324 9.4,278.039324 8.8,278.239324 C7.8,277.639324 6.7,276.939324 5.7,276.339324 C6.8,275.439324 7.8,274.239324 9.1,273.639324 C19,269.639324 29.1,266.839324 39.8,270.039324 C42.4,270.839324 44.7,270.339324 45.3,266.939324 C45.9,263.539324 43.4,263.539324 41.4,263.239324 C31,261.539324 20.7,261.239324 10.6,265.139324 C10.3,265.439324 9.5,264.639324 8.8,264.339324 Z" stroke="#644E4B" stroke-width="0.25" fill="#634D4B"></path>
                            <path d="M6.3,38.5393243 C7.8,37.8393243 9.3,37.1393243 10.8,36.4393243 C11.9,36.2393243 13,36.0393243 14.2,35.7393243 C22.2,34.1393243 30,30.5393243 38.3,33.4393243 C43.2,35.1393243 48,37.3393243 52.8,39.3393243 C54.5,40.3393243 56.1,41.4393243 57.8,42.4393243 C57.1,42.9393243 56.2,43.2393243 55.8,43.8393243 C54.7,45.3393243 53.9,46.9393243 52.9,48.4393243 C52,47.1393243 51.4,45.4393243 50.2,44.5393243 C38.8,36.2393243 20.5,37.3393243 9.4,43.6393243 C7.9,44.4393243 6.9,46.2393243 5.7,47.5393243 C3.2,45.5393243 3.4,43.4393243 5.1,41.0393243 C5.7,40.3393243 5.9,39.3393243 6.3,38.5393243 Z" stroke="#644E4B" stroke-width="0.25" fill="#644E4B"></path>
                            <path d="M42.8,218.339324 C30.5,214.739324 18.7,215.739324 7.5,222.539324 C6.6,221.839324 5.6,221.139324 4.7,220.439324 C6.4,219.039324 8.1,217.739324 9.7,216.339324 C19.2,213.539324 28.6,209.639324 38.8,213.139324 C39.8,213.439324 42.1,212.339324 42.5,211.339324 C43.3,209.339324 42.4,207.439324 39.7,207.239324 C40.4,206.939324 41,206.539324 41.7,206.239324 C42,206.239324 42.3,206.239324 42.7,206.239324 C45.4,206.939324 48,207.639324 50.7,208.239324 C50.3,210.639324 51.4,212.039324 53.2,213.539324 C56.5,216.339324 56.4,218.039324 53.8,221.139324 C52.1,216.039324 47.3,216.139324 43.1,214.239324 C42.9,216.139324 42.9,217.239324 42.8,218.339324 Z" fill="#5E494A"></path>
                            <path d="M5.7,47.6393243 C6.9,46.3393243 7.9,44.5393243 9.4,43.7393243 C20.6,37.4393243 38.8,36.3393243 50.2,44.6393243 C51.4,45.5393243 52,47.2393243 52.9,48.5393243 C52.2,49.1393243 51.5,49.8393243 50.8,50.4393243 C39.1,41.5393243 26.7,41.1393243 13.7,47.0393243 C11.8,47.9393243 9.8,48.6393243 7.8,49.5393243 C7.1,48.7393243 6.4,48.1393243 5.7,47.6393243 Z" fill="#4E3C3E"></path>
                            <path d="M5.8,444.439324 C6.6,443.339324 7.2,441.839324 8.3,441.239324 C13.7,438.239324 19.2,435.939324 25.6,436.339324 C31,436.739324 36.4,437.039324 41.8,437.339324 C42.5,437.639324 43.1,438.039324 43.8,438.339324 C43.8,440.039324 43.8,441.639324 43.8,443.339324 C34.2,440.339324 24.6,440.539324 15,443.139324 C12.3,443.839324 9.6,444.539324 6.9,445.339324 C6.5,445.039324 6.1,444.739324 5.8,444.439324 Z" fill="#5C4749"></path>
                            <path d="M52.8,39.3393243 C48,37.3393243 43.2,35.1393243 38.3,33.4393243 C30,30.5393243 22.2,34.1393243 14.2,35.7393243 C13.1,35.9393243 12,36.1393243 10.8,36.4393243 C14.9,34.9393243 18.8,32.7393243 23.1,31.9393243 C33.1,30.2393243 42.8,31.3393243 51.6,36.8393243 C52.1,37.1393243 52.4,37.8393243 52.8,38.3393243 C52.8,38.6393243 52.8,39.0393243 52.8,39.3393243 Z" fill="#524041"></path>
                            <path d="M51.8,446.339324 C52.8,449.239324 53.9,452.239324 54.9,455.139324 C54.9,457.939324 53.9,459.639324 50.8,459.339324 C49.8,458.639324 48.1,458.039324 47.9,457.039324 C46.6,452.839324 45.8,448.539324 44.8,444.239324 C47.1,445.039324 49.5,445.639324 51.8,446.339324 Z" stroke="#644E4B" stroke-width="0.25" fill="#654F4C"></path>
                            <path d="M39.8,207.339324 C30.2,205.739324 20.7,204.939324 11.7,209.839324 C11.1,210.139324 10.4,210.139324 9.8,210.339324 C11.7,208.939324 13.3,206.839324 15.4,206.239324 C24.1,203.739324 33,203.139324 41.8,206.339324 C41.1,206.639324 40.5,207.039324 39.8,207.339324 Z" stroke="#644E4B" stroke-width="0.25" fill="#644E4B"></path>
                            <path d="M53.8,221.239324 C53.2,221.639324 52.6,222.039324 52.1,222.439324 C49.4,221.439324 46.6,220.339324 43.9,219.339324 C43.6,219.039324 43.2,218.639324 42.9,218.339324 C43,217.239324 43,216.139324 43.1,214.339324 C47.2,216.339324 52,216.139324 53.8,221.239324 Z" stroke="#4F3D3F" stroke-width="0.25" fill="#503E40"></path>
                            <path d="M51.8,446.339324 C49.5,445.639324 47.1,445.039324 44.8,444.339324 C44.5,444.039324 44.1,443.639324 43.8,443.339324 C43.8,441.639324 43.8,440.039324 43.8,438.339324 C47.1,440.339324 50.5,442.339324 53.8,444.339324 C53.1,444.939324 52.5,445.639324 51.8,446.339324 Z" stroke="#4F3D3F" stroke-width="0.25" fill="#4F3D3F"></path>
                            <path d="M52.8,277.039324 C52.6,277.339324 52.3,277.439324 52,277.439324 C48.8,278.639324 46.5,276.539324 43.9,275.339324 C44.2,274.139324 44.4,272.939324 44.9,270.439324 C48.1,273.139324 50.4,275.039324 52.8,277.039324 Z" stroke="#4F3D3F" stroke-width="0.25" fill="#503F40"></path>
                        </g>
                    </g>
                    <g transform="translate(456.569746, 107.505474)" id="路径">
                        <path d="M0,457.606526 C2.5,457.906526 4.4,457.306526 4.8,454.306526 C5.3,451.306526 6.2,448.406526 6.9,445.506526 C8.2,445.206526 9.5,445.106526 10.7,444.606526 C18.4,441.606526 26.5,440.906526 34.7,441.606526 C38.2,441.906526 41.5,443.506526 44.9,444.506526 C49.7,452.506526 50.3,461.506526 50.9,470.506526 C42.2,467.806526 33.7,464.706526 24.9,462.506526 C17.3,460.606526 9.4,459.806526 1.6,458.506526 C1.1,458.406526 0.6,457.906526 0,457.606526 Z" stroke="#755C58" stroke-width="0.5" fill="#755C58"></path>
                        <path d="M6,221.506526 C3.3,218.106526 3.2,216.406526 6.5,213.706526 C8.6,212.006526 9,210.506526 8.7,207.806526 C7.3,196.206526 6.2,184.506526 5,172.806526 C4.6,169.006526 4.4,165.206526 4.1,161.406526 C4.1,156.906526 4.1,152.506526 4.1,148.006526 C4.1,132.806526 4,117.606526 4,102.406526 C5,89.8065259 6.1,77.1065259 7.1,64.5065259 C7.2,63.1065259 7.7,61.6065259 8,60.2065259 C9.8,62.0065259 11.3,64.1065259 13.4,65.5065259 C21.7,70.9065259 30.2,76.2065259 38.7,81.2065259 C42.5,83.5065259 44,86.2065259 44.2,90.8065259 C44.7,102.706526 46.2,114.506526 46.9,126.306526 C47.3,132.906526 47,139.606526 47,146.306526 C47,154.306526 47.3,162.306526 47,170.306526 C46.5,182.406526 45.7,194.406526 45,206.506526 L45,206.506526 C44.3,206.506526 43.6,206.506526 43,206.406526 C34.7,203.906526 26.4,204.006526 18,205.606526 C14.9,206.206526 12.3,207.806526 10.3,210.606526 C21.6,205.006526 32.7,205.606526 44,208.506526 C44.5,209.306526 45.3,210.106526 45.6,211.006526 C46.6,213.606526 45.6,214.806526 42.8,214.306526 C40.9,214.006526 38.9,213.506526 37,213.006526 C26.8,210.206526 17.6,213.606526 8.6,217.806526 C7.5,218.306526 6.9,220.306526 6,221.506526 Z" stroke="#755C58" stroke-width="0.25" fill="#755C58"></path>
                        <path d="M3.9,363.506526 C3.9,362.206526 3.9,360.806526 3.9,359.506526 C4.2,350.206526 4.1,340.906526 4.8,331.606526 C6,313.906526 7.7,296.206526 9.1,278.506526 C10.5,278.006526 11.9,277.506526 13.2,276.906526 C23,272.606526 32.9,272.106526 43,275.506526 C43.7,281.206526 44.4,286.906526 45.2,292.706526 C45.7,296.606526 46.6,300.506526 46.9,304.406526 C47.4,310.506526 47.8,316.606526 48,322.706526 C48.7,345.106526 49.8,367.406526 49.8,389.806526 C49.8,403.306526 48.1,416.706526 47.1,430.806526 C33.5,426.706526 21.1,428.406526 8.8,432.506526 C7.8,425.006526 6.4,417.406526 5.9,409.806526 C5,394.406526 4.6,379.006526 3.9,363.506526 Z" stroke="#755C58" stroke-width="0.5" fill="#755C58"></path>
                        <path d="M6,444.606526 C2.9,442.306526 4.1,439.806526 5.8,437.406526 C6.6,436.206526 7.9,435.406526 9,434.506526 C18,430.106526 27.5,430.106526 37.2,430.606526 C40.4,430.806526 43.6,431.706526 47.3,432.506526 C46.4,435.006526 45.7,436.806526 45.1,438.606526 C42.7,438.106526 40.3,437.306526 37.9,437.106526 C27.9,436.006526 18,435.606526 9,441.206526 C7.7,441.906526 7,443.406526 6,444.606526 Z" stroke="#755C58" stroke-width="0.5" fill="#755C58"></path>
                        <path d="M8.1,264.506526 C2.4,252.306526 2.4,239.906526 6.7,227.306526 C7.2,225.806526 7.4,224.206526 7.8,222.606526 C15,218.306526 22.8,215.706526 31.2,216.506526 C35.9,217.006526 40.4,218.406526 45,219.406526 C43.3,224.706526 46.8,229.306526 47,234.306526 C47.5,243.706526 47.9,253.106526 48.5,263.506526 C34.6,259.306526 21.7,259.506526 9,264.406526 C8.7,264.506526 8.4,264.506526 8.1,264.506526 Z" stroke="#755C58" stroke-width="0.5" fill="#755C58"></path>
                        <path d="M8.1,264.506526 C8.4,264.506526 8.7,264.506526 9.1,264.506526 C9.5,267.306526 11,265.406526 11.9,265.106526 C21.9,261.906526 32,261.506526 42.1,263.706526 C43.5,264.006526 45.5,265.106526 45.8,266.206526 C46.8,269.206526 45.5,271.006526 42,270.506526 C37.2,270.206526 32.4,269.106526 27.8,269.706526 C21.9,270.406526 16,272.306526 10.3,274.006526 C9,274.406526 8.2,276.106526 7.1,277.306526 C4.2,274.406526 4,271.406526 6.3,268.206526 C7,267.106526 7.5,265.706526 8.1,264.506526 Z" stroke="#755C58" stroke-width="0.5" fill="#745C58"></path>
                        <g transform="translate(0.000000, 0.000000)">
                            <path d="M51,50.5065259 C51.7,55.4065259 52.4,60.4065259 52.9,65.3065259 C56.3,96.8065259 57,128.406526 55.6,160.006526 C54.9,174.806526 53.3,189.506526 52.1,204.206526 C52,205.706526 51.4,207.106526 51,208.506526 C49,207.806526 47,207.206526 45,206.506526 C45.7,194.406526 46.5,182.406526 47,170.306526 C47.3,162.306526 47.1,154.306526 47,146.306526 C47,139.606526 47.3,133.006526 46.9,126.306526 C46.2,114.406526 44.7,102.606526 44.2,90.7065259 C44,86.1065259 42.5,83.4065259 38.7,81.1065259 C30.1,76.1065259 21.7,70.8065259 13.4,65.4065259 C11.3,64.1065259 9.8,61.9065259 8,60.1065259 C8,56.5065259 8.1,52.9065259 8.1,49.4065259 C10.1,48.6065259 12.1,47.8065259 14,46.9065259 C26.9,41.2065259 39.3,41.6065259 51,50.5065259 Z" stroke="#644E4B" stroke-width="0.5" fill="#644E4B"></path>
                            <path d="M8,38.5065259 C6.7,37.2065259 4.7,36.1065259 4.3,34.5065259 C2.9,29.6065259 1.9,24.6065259 1.1,19.5065259 C0,11.9065259 4.2,6.50652585 10.7,3.80652585 C22.6,-1.09347415 35,-1.19347415 47.1,3.10652585 C53.8,5.50652585 59.1,9.50652585 59.1,17.7065259 C59.1,18.4065259 59.9,19.0065259 60.3,19.7065259 C59.2,22.0065259 57.9,24.3065259 57,26.6065259 C55.6,30.6065259 54.4,34.7065259 53.1,38.7065259 C52.4,38.0065259 51.9,37.1065259 51.1,36.6065259 C42.4,31.4065259 32.9,30.3065259 23.3,32.0065259 C19,32.7065259 15.1,34.9065259 10.9,36.5065259 C10,37.2065259 9,37.8065259 8,38.5065259 Z" stroke="#644E4B" stroke-width="0.5" fill="#644E4B"></path>
                            <path d="M52.1,277.606526 C51.8,279.106526 51.1,280.706526 51.3,282.206526 C55.3,313.106526 56.5,344.206526 55.7,375.306526 C55.2,394.406526 54.2,413.506526 51.4,432.406526 C51.2,433.706526 52.2,435.406526 53.2,436.406526 C56.1,439.706526 56.3,441.006526 53.9,444.506526 C51.2,442.806526 48.6,441.206526 45.9,439.506526 C45.6,439.206526 45.2,438.806526 44.9,438.506526 C45.6,436.706526 46.2,435.006526 47.1,432.406526 C43.3,431.706526 40.2,430.706526 37,430.506526 C27.4,430.006526 17.8,430.106526 8.9,434.406526 C8.9,433.706526 8.9,433.106526 8.8,432.406526 C21.1,428.306526 33.5,426.606526 47.1,430.706526 C48.1,416.606526 49.8,403.106526 49.8,389.706526 C49.8,367.306526 48.7,345.006526 48,322.606526 C47.8,316.506526 47.5,310.406526 46.9,304.306526 C46.6,300.406526 45.7,296.506526 45.2,292.606526 C44.4,286.906526 43.7,281.206526 43,275.406526 C43.3,275.406526 43.7,275.406526 44,275.406526 C46.6,276.706526 49,278.806526 52.1,277.606526 Z" stroke="#644E4B" stroke-width="0.5" fill="#644E4B"></path>
                            <path d="M52.2,222.606526 C53.1,225.706526 54.1,228.806526 54.8,232.006526 C57.3,243.706526 56.7,255.106526 51.5,265.906526 C56.2,271.206526 56.5,273.606526 53,277.206526 C51,275.606526 49,274.106526 47,272.506526 C45.3,271.806526 43.7,271.206526 42,270.506526 C45.5,271.006526 46.8,269.206526 45.8,266.206526 C45.4,265.106526 43.5,264.006526 42.1,263.706526 C31.9,261.506526 21.8,261.906526 11.9,265.106526 C11,265.406526 9.5,267.306526 9.1,264.506526 C21.8,259.606526 34.7,259.406526 48.6,263.606526 C48.1,253.206526 47.6,243.806526 47.1,234.406526 C46.8,229.406526 43.4,224.806526 45.1,219.506526 C45.4,219.506526 45.8,219.506526 46.1,219.506526 C48.1,220.506526 50.2,221.606526 52.2,222.606526 Z" stroke="#644E4B" stroke-width="0.5" fill="#644E4B"></path>
                            <path d="M8,38.5065259 C9,37.8065259 10,37.2065259 11,36.5065259 C12.1,36.3065259 13.2,36.1065259 14.4,35.8065259 C22.4,34.2065259 30.2,30.6065259 38.5,33.5065259 C43.5,35.2065259 48.2,37.5065259 53.1,39.5065259 C57,44.2065259 57,44.9065259 53.1,48.6065259 C52.2,47.3065259 51.6,45.6065259 50.4,44.7065259 C38.9,36.4065259 20.7,37.5065259 9.6,43.8065259 C8.1,44.6065259 7.1,46.4065259 5.9,47.7065259 C3.9,46.4065259 4.2,41.7065259 0,43.5065259 C2.7,41.9065259 5.3,40.2065259 8,38.5065259 Z" stroke="#644E4B" stroke-width="0.25" fill="#644E4B"></path>
                            <path d="M46,219.506526 C45.7,219.506526 45.3,219.506526 45,219.506526 C40.4,218.506526 35.8,217.006526 31.2,216.606526 C22.7,215.806526 15,218.406526 7.8,222.706526 C7.2,222.306526 6.6,221.906526 6,221.606526 C6.9,220.306526 7.5,218.406526 8.7,217.806526 C17.7,213.706526 26.9,210.206526 37.1,213.006526 C39,213.506526 40.9,213.906526 42.9,214.306526 C45.7,214.806526 46.7,213.606526 45.7,211.006526 C45.4,210.106526 44.6,209.406526 44.1,208.506526 C44.4,207.806526 44.8,207.206526 45.1,206.506526 L45.1,206.506526 C47.1,207.206526 49.1,207.806526 51.1,208.506526 C50.6,210.806526 51.8,212.306526 53.5,213.806526 C56.8,216.606526 56.7,218.206526 54.1,221.406526 C52.5,219.806526 51.2,217.806526 49.3,216.806526 C47,215.706526 45.8,217.106526 46,219.506526 Z" fill="#5E494A"></path>
                            <path d="M5.9,47.8065259 C7.1,46.5065259 8.1,44.7065259 9.6,43.9065259 C20.7,37.6065259 39,36.5065259 50.4,44.8065259 C51.6,45.7065259 52.2,47.4065259 53.1,48.7065259 C52.4,49.3065259 51.7,50.0065259 51.1,50.6065259 C39.4,41.7065259 27,41.3065259 14,47.1065259 C12.1,48.0065259 10.1,48.7065259 8.1,49.6065259 C7.3,48.9065259 6.6,48.3065259 5.9,47.8065259 Z" fill="#4E3C3E"></path>
                            <path d="M57.4,474.406526 C55.3,473.106526 53.1,471.806526 51,470.506526 C50.4,461.506526 49.8,452.506526 45,444.506526 L45.5,444.506526 L46,444.506526 C48,445.206526 50,445.806526 52,446.506526 C56.1,455.306526 58.3,464.606526 57.4,474.406526 Z" stroke="#644E4B" stroke-width="0.5" fill="#66504D"></path>
                            <path d="M53,39.5065259 C48.2,37.5065259 43.4,35.3065259 38.4,33.5065259 C30.1,30.6065259 22.2,34.2065259 14.3,35.8065259 C13.2,36.0065259 12.1,36.2065259 10.9,36.5065259 C15,34.9065259 19,32.7065259 23.2,32.0065259 C32.9,30.3065259 42.4,31.4065259 51,36.6065259 C51.8,37.1065259 52.3,38.0065259 53,38.7065259 C53.3,39.0065259 53.2,39.3065259 53,39.5065259 Z" fill="#524041"></path>
                            <path d="M52,446.506526 C50,445.806526 48,445.206526 46,444.506526 C46,442.806526 46,441.206526 46,439.506526 C48.7,441.206526 51.3,442.806526 54,444.506526 C53.3,445.106526 52.7,445.806526 52,446.506526 Z" stroke="#4F3D3F" stroke-width="0.25" fill="#503E3F"></path>
                            <path d="M46,219.506526 C45.8,217.106526 47,215.706526 49.2,216.806526 C51.1,217.806526 52.4,219.806526 54,221.406526 C53.4,221.806526 52.8,222.206526 52.3,222.606526 C50.2,221.606526 48.1,220.506526 46,219.506526 Z" stroke="#4F3D3F" stroke-width="0.25" fill="#513F40"></path>
                            <path d="M47,272.506526 C49,274.106526 51,275.606526 53,277.206526 C52.8,277.506526 52.5,277.606526 52.2,277.606526 C49,278.806526 46.7,276.706526 44.1,275.506526 C43.7,273.206526 44.8,272.306526 47,272.506526 Z" stroke="#4F3D3F" stroke-width="0.25" fill="#4F3D3F"></path>
                            <path d="M6,444.606526 C7,443.406526 7.8,441.906526 9,441.106526 C18,435.506526 27.9,435.906526 37.9,437.006526 C40.3,437.306526 42.7,438.006526 45.1,438.506526 C45.4,438.806526 45.8,439.206526 46.1,439.506526 C46.1,441.206526 46.1,442.806526 46.1,444.506526 L45.6,444.506526 L45,444.506526 C41.6,443.506526 38.2,441.906526 34.8,441.606526 C26.7,440.906526 18.6,441.606526 10.8,444.606526 C9.6,445.106526 8.3,445.206526 7,445.506526 C6.7,445.206526 6.3,444.906526 6,444.606526 Z" fill="#5C4749"></path>
                            <path d="M43,275.506526 C32.9,272.106526 23,272.606526 13.2,276.906526 C11.8,277.506526 10.5,278.006526 9.1,278.506526 C8.4,278.106526 7.7,277.706526 7.1,277.306526 C8.1,276.206526 9,274.406526 10.3,274.006526 C16.1,272.306526 21.9,270.406526 27.8,269.706526 C32.4,269.106526 37.3,270.206526 42,270.506526 C43.7,271.206526 45.3,271.806526 47,272.506526 C44.7,272.306526 43.7,273.306526 44,275.506526 C43.7,275.506526 43.3,275.506526 43,275.506526 Z" fill="#5C4749"></path>
                            <path d="M44,208.506526 C32.7,205.506526 21.6,205.006526 10.3,210.606526 C12.3,207.806526 14.9,206.106526 18,205.606526 C26.4,204.006526 34.8,204.006526 43,206.406526 C43.6,206.606526 44.3,206.506526 45,206.506526 C44.7,207.206526 44.3,207.806526 44,208.506526 Z" stroke="#644E4B" stroke-width="0.5" fill="#644E4B"></path>
                        </g>
                    </g>
                    <g transform="translate(215.269746, 145.212000)" id="路径">
                        <path d="M24.2,404.8 C21,361 21.5,317.4 27.4,273.8 C33.2,271.3 39,269.9 45.4,269.4 C51,268.9 56.1,268.9 61.3,270.9 C61.3,271.9 61.2,272.9 61.5,273.9 C65.3,288.9 66.6,304.2 67.1,319.5 C67.7,337.2 66.8,355 66.3,372.8 C66,383.5 65,394.2 64.4,405 C50.9,404.8 37.6,404.8 24.2,404.8 Z" stroke="#7F706B" stroke-width="0.25" fill="#7F706B"></path>
                        <path d="M46.4,176.8 C46,176.8 45.6,176.8 45.3,176.8 C38.3,178.4 31.2,180 24.2,181.6 C23.3,164.7 21.8,147.7 21.8,130.8 C21.8,112.7 23.2,94.6 24.2,76.5 C24.8,65.9 25.6,55.4 26.4,44.8 C28.9,43.7 31.6,42.8 34,41.5 C38.1,39.3 41.8,39.8 45.1,43 C45.8,43.7 46.6,44.2 47.4,44.8 L47.4,44.8 C47.4,88.5 47.4,132.2 47.4,175.9 C47,176.2 46.7,176.5 46.4,176.8 Z" stroke="#7F706B" stroke-width="0.25" fill="#80706B"></path>
                        <path d="M22.3,232.8 C30.8,233.4 39.4,233.9 47.9,234.4 C48.7,234.4 49.4,234 50.2,233.7 C50.9,233.7 51.6,233.7 52.3,233.6 C56.3,232.6 60.3,231.7 64.3,230.7 C64.2,239.6 64.9,248.5 61.8,257.6 C51.8,254.5 42.1,256 32.3,257.7 C30,258.1 27.6,258.5 27.3,261.6 C26.9,261.9 26.4,262.3 26,262.6 C26,261.6 26.4,260.5 26,259.7 C22,251.2 21.7,242.1 22.3,232.8 Z" stroke="#7F706B" stroke-width="0.25" fill="#7F706B"></path>
                        <path d="M23.1,28.9 C24.6,29.6 26.1,30.3 28,31.2 C27.1,32.2 26.4,32.9 25.3,34.2 C28.4,33.7 31.8,31.3 33,36 C30,38.3 25.3,38.5 24.2,43.1 C23.7,41.5 22.2,39.1 22.7,38.5 C25.7,35.2 23.5,32.1 23.1,28.9 Z" stroke="#7F706B" stroke-width="0.25" fill="#81716C"></path>
                        <path d="M49.3,46.8 C53.5,49.9 58,52.7 61.9,56.1 C63.4,57.4 63.9,60.2 64.2,62.4 C65.4,72 66.4,81.7 67.3,91.4 C68.4,103.2 69.6,115 70.2,126.9 C70.5,134 69.7,141.1 69.5,148.2 C69.4,151 69.5,153.8 69.4,156.7 C69.1,162.1 69.2,167.7 68,172.9 C67.4,175.9 68.4,176.7 70.4,177.7 C63.4,177.1 56.4,176.5 49.4,175.9 C49.3,132.8 49.3,89.8 49.3,46.8 Z" stroke="#7F706B" stroke-width="0.25" fill="#7F706B"></path>
                        <g>
                            <path d="M64.3,404.8 C65,394.1 65.9,383.4 66.2,372.6 C66.7,354.8 67.6,337.1 67,319.3 C66.5,304 65.2,288.7 61.4,273.7 C61.2,272.7 61.3,271.7 61.2,270.7 L61.2,270.7 C64.2,271.4 67.3,272.1 70.3,272.8 C70,274.3 69.3,275.9 69.4,277.4 C70.7,294.1 72.4,310.8 73.2,327.6 C73.9,341 74,354.5 73.8,368 C73.6,379.9 72.6,391.9 71.9,403.8 C69.5,404.1 66.9,404.5 64.3,404.8 Z" stroke="#706662" stroke-width="0.25" fill="#756662"></path>
                            <path d="M26.3,44.8 C25.6,44.2 24.9,43.6 24.2,43 C25.3,38.4 30,38.2 33,35.9 C31.8,31.2 28.4,33.6 25.3,34.1 C26.5,32.8 27.2,32.1 28,31.1 C26.1,30.2 24.6,29.5 23.1,28.8 C22.2,26 21,24.2 17.3,24.3 C11.6,24.4 5.8,23.4 5.68434189e-14,22.9 C6.5,22.9 13.1,22.9 19.3,22.9 C19.8,21.9 20.1,21.6 20.1,21.4 C19.3,14.7 19.2,8.1 23.6,2.4 C23.2,2.2 22.7,2 22.3,1.9 C25,1.6 27.7,1.3 30.4,0.9 C36.1,0.9 41.7,1 47.4,1 C47.4,9.4 47.4,17.8 47.4,26 C41.1,27.7 35.5,29.2 29.9,30.7 C30,31.1 30.1,31.4 30.2,31.7 C35.7,30.4 41.2,29.1 46.6,27.8 C47.9,34.2 47.5,34.7 41.8,34.9 C39.8,35 37.9,35.5 35.3,35.9 C38.7,40.9 43.5,37.5 47.3,39.8 C47.3,41.3 47.3,43.1 47.3,44.9 C46.5,44.3 45.7,43.8 45,43.1 C41.6,39.9 38,39.4 33.9,41.6 C31.4,42.8 28.8,43.7 26.3,44.8 Z" stroke="#706662" stroke-width="0.25" fill="#756662"></path>
                            <path d="M75.3,1.8 C74.6,1.8 74,1.9 73.3,1.9 C74.7,5.1 76.7,8.2 77.1,11.5 C77.5,14.9 76.3,18.6 75.8,22.9 C83.4,22.9 91,22.9 98.6,22.9 C92.3,23.5 86.1,24.4 79.8,24.4 C75.9,24.4 74.1,25.7 73.5,29.4 C73.2,31 72.2,32.4 71.6,33.9 C69.5,32.9 67.4,31.8 65.4,30.8 C60.3,29 55.1,27.2 49.4,25.2 C49.4,18.9 49.5,11.8 49.3,4.7 C49.3,3.4 48.1,2.2 47.5,0.9 C41.8,0.9 36.2,0.8 30.5,0.8 C31.7,0.5 33,0.1 34.2,0.1 C43.9,-2.84217094e-14 53.7,-0.1 63.4,0.2 C67.3,0.2 71.3,1.2 75.3,1.8 Z" stroke="#706662" stroke-width="0.25" fill="#756662"></path>
                            <path d="M72.9,177.7 C72,177.7 71.3,177.7 70.3,177.7 C70.2,177.7 70.2,177.7 70.1,177.7 C68.2,176.7 67.2,175.9 67.8,172.9 C68.9,167.6 68.8,162.1 69.2,156.7 C69.4,153.9 69.2,151.1 69.3,148.2 C69.6,141.1 70.4,134 70,126.9 C69.4,115.1 68.2,103.3 67.1,91.4 C66.2,81.7 65.2,72.1 64,62.4 C63.7,60.2 63.2,57.4 61.7,56.1 C58.1,52.9 54,50.2 50,47.4 C49.7,46.8 49.4,46.2 49.1,45.6 L49.1,39 C49.1,38.9 49.2,38.8 49.3,38.8 C57.4,38.6 63.6,41 69,45.7 C69,45.7 69.1,45.8 69.1,45.8 C69.7,50.4 70.5,54.9 71,59.5 C74.5,91.4 74.9,123.5 73.9,155.6 C73.7,162.4 73.2,169.1 72.8,175.9 C72.9,176 72.9,177.1 72.9,177.7 Z" stroke="#706662" stroke-width="0.25" fill="#756662"></path>
                            <path d="M64.3,230.8 C67.3,230.1 70.3,229.4 73.3,228.7 C75.2,237.8 75,246.8 72,255.6 C71.4,257.5 70.6,259.3 69.9,261.1 C74.5,266.5 74.7,268.8 71.3,272.4 C69.7,268.2 65.6,268.2 61.8,266.4 C61.6,268.2 61.5,269.5 61.3,270.7 L61.3,270.7 C56.1,268.7 50.9,268.8 45.4,269.2 C39,269.7 33.1,271.2 27.4,273.6 C26.4,272.9 25.4,272.2 24.4,271.5 C24.7,271.1 24.9,270.5 25.3,270.3 C35.4,265.5 45.7,262 57.1,265.3 C58.3,265.6 59.6,265.3 61.1,265.3 C61.1,262.9 61.1,261 61.1,259.2 C50.9,256.1 36.6,257.1 27.5,261.4 C27.8,258.3 30.2,257.9 32.5,257.5 C42.2,255.8 52,254.3 62,257.4 C64.9,248.7 64.2,239.7 64.3,230.8 Z" stroke="#706662" stroke-width="0.25" fill="#746562"></path>
                            <path d="M69.3,45.8 C63.8,41.1 57.5,38.7 49.3,38.9 C49.3,41.3 49.3,43.6 49.3,45.8 C48.6,45.5 48,45.1 47.3,44.8 L47.3,44.8 C47.3,43 47.3,41.2 47.3,39.7 C43.5,37.4 38.7,40.8 35.3,35.8 C37.8,35.4 39.8,34.9 41.8,34.8 C47.5,34.6 47.9,34.1 46.6,27.7 C41.1,29 35.6,30.3 30.2,31.6 C30.1,31.2 30,30.9 29.9,30.6 C35.5,29.1 41.2,27.6 47.4,25.9 C47.4,17.7 47.4,9.3 47.4,0.9 C48,2.2 49.2,3.4 49.2,4.7 C49.4,11.8 49.3,18.9 49.3,25.2 C55,27.2 60.2,29 65.3,30.8 C61.5,29.8 57.7,28.7 53.9,28 C52.2,27.7 49.8,26.8 49.3,30 C48.9,32.8 50.3,33.9 52.6,34.4 C53.1,34.5 53.6,34.6 54,34.7 C57.9,35.8 62,36.5 65.7,38.2 C68,39.3 69.5,41.9 71.3,43.8 C70.7,44.5 70,45.2 69.3,45.8 Z" stroke="#645957" stroke-width="0.25" fill="#645957"></path>
                            <path d="M71.4,43.9 C69.5,42 68,39.3 65.8,38.3 C62.2,36.6 58,35.9 54.1,34.8 C53.6,34.7 53.1,34.6 52.7,34.5 C50.3,34 48.9,32.8 49.4,30.1 C49.9,26.9 52.3,27.8 54,28.1 C57.9,28.8 61.6,30 65.4,30.9 C67.5,31.9 69.6,33 71.6,34 C71.9,34.7 72,35.6 72.5,36.2 C75.2,39.2 74.7,41.7 71.4,43.9 Z" stroke="#706662" stroke-width="0.25" fill="#756662"></path>
                            <path d="M61.3,270.8 C61.4,269.6 61.6,268.3 61.8,266.5 C65.5,268.3 69.7,268.3 71.3,272.5 C71.1,272.8 70.8,272.9 70.5,272.9 C67.4,272.2 64.3,271.5 61.3,270.8 Z" fill="#665B59"></path>
                            <path d="M26.1,262.7 C26.5,262.4 27,262 27.4,261.7 C36.5,257.4 50.8,256.4 61,259.5 C61,261.3 61,263.2 61,265.6 C59.5,265.6 58.2,265.9 57,265.6 C45.6,262.3 35.3,265.8 25.2,270.6 C24.8,270.8 24.6,271.4 24.3,271.8 C22.2,267.3 22.5,265.6 26.1,262.7 Z" stroke="#7F706B" stroke-width="0.25" fill="#7F706B"></path>
                            <path d="M49.3,46.8 C49.3,89.8 49.3,132.8 49.3,175.9 C48.6,175.9 48,175.9 47.3,176 C47.3,132.3 47.3,88.6 47.3,44.9 C48,45.2 48.6,45.6 49.3,45.9 C49.3,46.1 49.3,46.5 49.3,46.8 Z" stroke="#6C605B" stroke-width="0.25" fill="#6C605B"></path>
                        </g>
                    </g>
                    <g transform="translate(61.387741, 121.588270)">
                        <path d="M291.882005,43.5237301 C297.782005,46.8237301 303.982005,49.6237301 309.482005,53.4237301 C321.282005,61.4237301 332.882005,69.6237301 344.182005,78.2237301 C348.882005,81.8237301 352.482005,86.8237301 357.082005,90.7237301 C365.682005,97.9237301 372.682005,106.52373 378.882005,115.72373 C384.782005,124.52373 390.182005,133.72373 395.782005,142.62373 C396.782005,144.22373 397.982005,145.82373 399.182005,147.42373 C399.482005,151.22373 399.782005,155.02373 400.082005,158.82373 C401.282005,170.52373 402.382005,182.22373 403.782005,193.82373 C404.082005,196.42373 403.682005,198.02373 401.582005,199.72373 C398.282005,202.42373 398.382005,204.12373 401.082005,207.52373 C401.682005,207.92373 402.282005,208.32373 402.882005,208.62373 C402.482005,210.22373 402.382005,211.82373 401.782005,213.32373 C397.482005,225.92373 397.482005,238.32373 403.182005,250.52373 C402.582005,251.72373 402.182005,253.12373 401.382005,254.22373 C399.082005,257.42373 399.282005,260.42373 402.182005,263.32373 C402.882005,263.72373 403.582005,264.12373 404.182005,264.52373 C402.682005,282.22373 401.082005,299.92373 399.882005,317.62373 C399.282005,326.92373 399.282005,336.22373 398.982005,345.52373 C398.582005,343.12373 398.082005,340.72373 397.882005,339.52373 C388.882005,352.02373 380.182005,365.62373 369.982005,377.82373 C356.382005,394.02373 339.582005,406.82373 321.482005,417.72373 C315.382005,421.32373 308.782005,424.02373 302.582005,427.42373 C301.082005,428.22373 297.682005,428.02373 299.182005,431.52373 C285.982005,430.82373 272.682005,430.12373 259.482005,429.62373 C249.582005,429.22373 239.582005,429.02373 229.682005,428.62373 C228.482005,428.62373 227.282005,427.92373 226.082005,427.52373 C226.682005,415.62373 227.682005,403.62373 227.982005,391.72373 C228.182005,378.22373 228.082005,364.72373 227.382005,351.32373 C226.482005,334.62373 224.782005,317.92373 223.582005,301.22373 C223.482005,299.72373 224.182005,298.12373 224.482005,296.62373 C224.882005,296.62373 225.082005,296.52373 225.282005,296.22373 C228.682005,292.72373 228.382005,290.42373 223.882005,284.92373 C224.582005,283.12373 225.382005,281.22373 225.982005,279.42373 C228.982005,270.62373 229.282005,261.62373 227.282005,252.52373 C227.882005,252.22373 228.382005,251.82373 228.982005,251.62373 C265.782005,242.22373 302.582005,232.92373 339.382005,223.42373 C351.782005,220.22373 363.982005,216.82373 376.382005,213.52373 C377.982005,212.82373 379.582005,212.12373 381.282005,211.42373 C379.882005,211.12373 378.482005,210.72373 376.982005,210.62373 C372.482005,210.42373 367.982005,210.52373 363.482005,210.22373 C340.982005,208.72373 318.482005,207.02373 295.982005,205.52373 C281.882005,204.62373 267.782005,204.02373 253.682005,203.22373 C245.782005,202.72373 237.782005,202.12373 229.882005,201.32373 C225.682005,202.92373 226.782005,199.62373 226.782005,199.62373 C226.782005,199.62373 227.682005,186.02373 227.882005,179.22373 C228.882005,147.12373 228.482005,115.12373 224.982005,83.1237301 C224.482005,78.5237301 223.782005,73.9237301 223.082005,69.3237301 C223.782005,68.7237301 224.482005,68.0237301 225.182005,67.4237301 C228.482005,65.2237301 229.082005,62.7237301 226.282005,59.6237301 C225.782005,59.0237301 225.682005,58.1237301 225.382005,57.4237301 C226.082005,55.9237301 226.982005,54.5237301 227.282005,52.9237301 C227.882005,49.2237301 229.682005,47.9237301 233.582005,47.9237301 C239.882005,47.9237301 246.082005,46.9237301 252.382005,46.4237301 C264.182005,45.8237301 275.982005,45.3237301 287.782005,44.6237301 C289.182005,44.7237301 290.482005,43.9237301 291.882005,43.5237301 Z M3.08200528,179.42373 C4.78200528,175.02373 6.38200528,170.52373 8.08200528,166.12373 C11.0820053,158.32373 14.0820053,150.42373 17.0820053,142.62373 C21.1820053,131.82373 27.2820053,122.12373 33.6820053,112.62373 C36.2820053,108.62373 39.3820053,104.92373 42.8820053,100.12373 C42.9820053,102.62373 43.2820053,104.12373 43.1820053,105.62373 C42.8820053,111.02373 44.9820053,115.52373 47.4820053,120.12373 C52.4820053,129.02373 65.7820053,134.52373 77.3820053,130.92373 C93.6820053,125.92373 104.482005,114.62373 112.982005,100.72373 C117.282005,93.7237301 119.582005,86.0237301 119.282005,77.5237301 C118.882005,66.6237301 114.382005,58.4237301 104.482005,53.5237301 C103.182005,52.9237301 101.882005,52.1237301 99.6820053,50.9237301 C104.782005,48.2237301 109.182005,45.9237301 113.482005,43.6237301 C114.082005,43.9237301 114.582005,44.4237301 115.182005,44.5237301 C128.082005,45.2237301 140.982005,45.9237301 153.882005,46.6237301 C159.682005,47.1237301 165.382005,48.1237301 171.182005,48.0237301 C174.882005,47.9237301 176.082005,49.7237301 176.982005,52.5237301 C177.382005,55.7237301 179.582005,58.9237301 176.582005,62.1237301 C176.082005,62.7237301 177.482005,65.1237301 178.082005,66.7237301 C178.782005,67.3237301 179.482005,67.9237301 180.182005,68.5237301 C179.482005,79.1237301 178.582005,89.6237301 177.982005,100.22373 C176.982005,118.32373 175.582005,136.42373 175.582005,154.52373 C175.582005,171.42373 177.082005,188.42373 177.982005,205.32373 C158.582005,210.22373 139.282005,215.12373 119.882005,220.12373 C112.582005,222.02373 105.382005,224.32373 98.0820053,226.42373 C87.7820053,228.82373 77.4820053,231.02373 67.1820053,233.62373 C54.6820053,236.72373 42.2820053,240.12373 29.8820053,243.42373 C27.0820053,244.22373 24.3820053,245.02373 21.5820053,245.82373 C21.6820053,246.02373 21.6820053,246.32373 21.7820053,246.52373 C23.5820053,246.52373 25.3820053,246.52373 27.1820053,246.52373 C28.6820053,246.82373 30.0820053,247.22373 31.5820053,247.32373 C51.4820053,248.52373 71.2820053,249.62373 91.1820053,250.72373 C91.7820053,250.92373 92.3820053,251.32373 92.9820053,251.42373 C106.082005,252.22373 119.082005,252.82373 132.082005,253.62373 C146.782005,254.52373 161.482005,255.62373 176.182005,256.62373 C175.582005,265.92373 175.882005,275.02373 179.982005,283.62373 C180.382005,284.42373 179.982005,285.52373 179.982005,286.52373 C176.382005,289.42373 176.082005,291.12373 178.282005,295.52373 C179.282005,296.22373 180.282005,296.92373 181.282005,297.62373 C175.482005,341.12373 174.982005,384.82373 178.082005,428.62373 C159.482005,429.32373 140.782005,430.02373 122.182005,430.72373 C125.582005,430.22373 128.982005,429.62373 133.382005,428.92373 C132.282005,428.32373 131.882005,428.12373 131.482005,427.92373 C112.282005,420.22373 95.3820053,408.62373 80.3820053,394.92373 C65.5820053,381.42373 51.0820053,367.42373 39.0820053,351.12373 C28.8820053,337.32373 20.0820053,322.72373 13.8820053,306.72373 C9.58200528,295.82373 6.18200528,284.62373 2.18200528,272.82373 C2.18200528,275.52373 2.18200528,277.62373 2.18200528,279.72373 C1.48200528,275.02373 0.782005281,270.32373 0.282005281,265.72373 C0.182005281,265.12373 0.982005281,264.32373 1.38200528,263.62373 C1.78200528,263.72373 1.98200528,263.52373 2.18200528,263.22373 C5.68200528,259.62373 5.38200528,256.92373 0.782005281,252.22373 C1.58200528,250.02373 2.48200528,247.82373 3.18200528,245.42373 C6.38200528,234.42373 6.38200528,223.62373 2.28200528,212.82373 C1.78200528,211.52373 1.78200528,210.02373 1.48200528,208.62373 C2.08200528,208.22373 2.68200528,207.82373 3.18200528,207.42373 C5.88200528,204.22373 5.88200528,202.52373 2.58200528,199.82373 C0.782005281,198.32373 -0.317994719,196.92373 0.0820052811,194.52373 C1.08200528,189.42373 2.08200528,184.42373 3.08200528,179.42373 Z" id="玻璃罩面" stroke="#E0E1DE" stroke-width="0.5" fill="#E0E1DE"></path>
                        <path d="M3.08200528,179.42373 C3.78200528,162.42373 4.68200528,145.32373 5.18200528,128.32373 C5.48200528,116.02373 5.28200528,103.72373 5.28200528,91.5237301 C5.58200528,93.1237301 6.08200528,94.6237301 6.08200528,96.2237301 C6.18200528,101.32373 6.08200528,106.42373 6.08200528,111.72373 C6.68200528,111.32373 7.08200528,111.32373 7.18200528,111.02373 C13.7820053,98.6237301 22.4820053,87.7237301 31.8820053,77.4237301 C42.5820053,65.7237301 53.6820053,54.0237301 67.1820053,45.3237301 C68.7820053,44.2237301 70.9820053,43.1237301 70.0820053,40.3237301 C72.4820053,39.5237301 75.2820053,39.2237301 77.2820053,37.8237301 C103.482005,20.3237301 132.382005,9.52373015 163.082005,3.42373015 C182.282005,-0.376269853 201.682005,-0.576269853 220.982005,0.723730147 C244.682005,2.32373015 267.782005,7.92373015 289.782005,17.2237301 C303.682005,23.1237301 317.082005,29.8237301 329.582005,38.3237301 C331.382005,39.5237301 333.782005,39.6237301 335.982005,40.2237301 C334.582005,43.2237301 337.282005,43.9237301 338.782005,45.1237301 C343.782005,49.1237301 349.382005,52.5237301 354.082005,56.9237301 C369.282005,71.2237301 383.582005,86.4237301 394.982005,104.12373 C395.782005,105.32373 396.582005,106.42373 398.082005,108.52373 C398.082005,104.52373 397.982005,101.72373 398.082005,99.0237301 C398.282005,95.4237301 398.682005,91.9237301 398.982005,88.3237301 C398.982005,103.52373 399.082005,118.72373 399.082005,133.92373 C399.082005,138.42373 399.082005,142.82373 399.082005,147.32373 C397.982005,145.72373 396.782005,144.22373 395.682005,142.52373 C390.082005,133.52373 384.682005,124.42373 378.782005,115.62373 C372.582005,106.42373 365.582005,97.8237301 356.982005,90.6237301 C352.382005,86.7237301 348.782005,81.7237301 344.082005,78.1237301 C332.782005,69.5237301 321.082005,61.2237301 309.382005,53.3237301 C303.882005,49.5237301 297.682005,46.7237301 291.782005,43.4237301 C283.782005,40.2237301 275.982005,36.8237301 267.882005,34.0237301 C255.282005,29.6237301 242.382005,26.3237301 229.082005,25.3237301 C225.082005,24.7237301 221.082005,23.7237301 217.082005,23.6237301 C207.382005,23.4237301 197.582005,23.5237301 187.882005,23.5237301 C186.682005,23.5237301 185.382005,24.0237301 184.182005,24.2237301 C181.482005,24.5237301 178.782005,24.8237301 176.082005,25.2237301 C174.282005,25.3237301 172.482005,25.3237301 170.682005,25.6237301 C150.782005,28.8237301 131.682005,34.9237301 113.382005,43.4237301 C108.982005,45.7237301 104.582005,48.0237301 99.5820053,50.7237301 C101.782005,51.9237301 103.082005,52.7237301 104.382005,53.3237301 C114.282005,58.2237301 118.782005,66.4237301 119.182005,77.3237301 C119.482005,85.8237301 117.182005,93.5237301 112.882005,100.52373 C104.382005,114.42373 93.5820053,125.62373 77.2820053,130.72373 C65.6820053,134.32373 52.3820053,128.82373 47.3820053,119.92373 C44.7820053,115.32373 42.7820053,110.82373 43.0820053,105.42373 C43.1820053,103.92373 42.9820053,102.42373 42.7820053,99.9237301 C39.1820053,104.72373 36.1820053,108.42373 33.5820053,112.42373 C27.1820053,121.92373 21.0820053,131.62373 16.9820053,142.42373 C14.0820053,150.32373 10.9820053,158.12373 7.98200528,165.92373 C6.38200528,170.52373 4.78200528,175.02373 3.08200528,179.42373 Z M94.1820053,432.42373 C95.2820053,431.92373 96.2820053,431.32373 97.0820053,430.92373 C89.4820053,426.22373 81.4820053,421.92373 73.9820053,416.72373 C57.3820053,405.12373 42.3820053,391.62373 29.2820053,376.12373 C20.9820053,366.22373 12.6820053,356.32373 6.78200528,344.72373 C6.48200528,344.22373 5.78200528,343.92373 5.28200528,343.42373 C4.18200528,322.12373 3.18200528,300.82373 2.08200528,279.52373 C2.08200528,277.42373 2.08200528,275.32373 2.08200528,272.62373 C6.18200528,284.42373 9.58200528,295.62373 13.7820053,306.52373 C20.0820053,322.52373 28.8820053,337.02373 38.9820053,350.92373 C50.9820053,367.22373 65.4820053,381.22373 80.2820053,394.72373 C95.3820053,408.42373 112.182005,420.02373 131.382005,427.72373 C131.782005,427.92373 132.182005,428.22373 133.282005,428.72373 C128.882005,429.42373 125.482005,429.92373 122.082005,430.52373 C112.882005,431.12373 103.482005,431.82373 94.1820053,432.42373 Z M399.082005,349.42373 C398.182005,349.82373 397.082005,349.92373 396.582005,350.62373 C391.482005,357.32373 386.982005,364.52373 381.382005,370.82373 C371.982005,381.22373 362.282005,391.52373 351.982005,401.02373 C343.982005,408.32373 334.982005,414.72373 326.182005,421.02373 C320.782005,424.82373 314.782005,427.72373 309.082005,431.02373 C310.082005,431.52373 311.182005,432.12373 312.282005,432.62373 C307.982005,432.32373 303.582005,431.92373 299.282005,431.62373 C297.782005,428.12373 301.182005,428.32373 302.682005,427.52373 C308.982005,424.22373 315.582005,421.42373 321.582005,417.82373 C339.682005,406.92373 356.482005,394.12373 370.082005,377.92373 C380.382005,365.72373 388.982005,352.12373 397.982005,339.62373 C398.182005,340.92373 398.682005,343.22373 399.082005,345.62373 C399.082005,346.72373 399.082005,348.12373 399.082005,349.42373 Z" id="玻璃外框" stroke="#ECEFEE" stroke-width="0.25" fill="#ECEFEE"></path>
                        <g id="指南针" transform="translate(21.582005, 199.523730)" stroke-width="0.25">
                            <path d="M179.4,30.2 C180.1,36.6 180.8,43.1 181.6,49.5 C181.9,52.3 182.2,55.1 182.5,57.9 C181.7,58.1 180.9,58.6 180.2,58.6 C171.7,58.1 163.1,57.5 154.6,57 L110.5,54 C97.5,53.2 84.4,52.5 71.4,51.8 C70.8,51.8 70.2,51.4 69.6,51.1 C72.5,51 75.4,50.8 78.5,50.7 C78.2,46.7 77.9,43.3 77.7,39.9 L109.2,36.9 C117.7,36 126.2,35 134.8,34.1 C142,33.3 149.3,32.6 156.5,32 C163.9,31.4 171.3,30.9 179.4,30.2 Z M354.7,14 C342.4,17.3 330.1,20.7 317.7,23.9 C280.9,33.3 244.1,42.7 207.2,52.1 C206.6,52.3 206.1,52.7 205.5,53 L196.5,55.1 C192.5,56.1 188.5,57 184.5,58 C183.6,48.9 182.6,39.7 181.6,30.2 C189.309091,29.4 196.753719,28.6528926 204.164688,27.9202104 L209.72021,27.3728024 C210.646281,27.2818182 211.572727,27.1909091 212.5,27.1 C221.2,26.3 230,25.8 238.7,25 C250.8,23.8 263,22.3 275.1,21.1 C287.4,19.9 299.8,19.1 312.1,18 C316.7,17.6 321.3,17.1 325.9,16.7 C335.7,15.7 345.2,14.8 354.7,14 Z M177.5,0.9 C178,9.6 178.6,18.3 179.2,27.7 C176.4,28.1 173.4,28.6 170.3,28.9 C161.1,29.9 151.9,30.8 142.7,31.7 C138.3,32.1 133.8,32.5 129.4,32.9 C117,33.9 104.7,34.9 92.4,36 C87.5,36.5 82.6,37.3 77.7,37.9 L76.5,26.8 L76.5,26.8 C83.8,24.7 91,22.4 98.3,20.5 C117.7,15.5 137,10.7 156.4,5.7 C163.4,4.1 170.5,2.5 177.5,0.9 Z M181.8,0 C183.415385,0.138461538 185.286391,0.292899408 187.22376,0.448566227 L188.001798,0.510863541 C188.262025,0.531627856 188.522983,0.552379062 188.784224,0.573082203 L189.568344,0.635012472 L190.286312,0.691349406 C195.782226,1.12124852 201.021538,1.5 201.8,1.5 L202.561896,1.54 C204.220889,1.62666667 205.96,1.71333333 208.3,1.8 C216.2,2.5 224.2,3.2 232.1,3.7 C246.2,4.5 260.3,5.1 274.4,6 C296.9,7.5 319.4,9.2 341.9,10.7 C346.4,11 350.9,10.9 355.4,11.1 C356.8,11.2 358.2,11.6 359.7,11.9 C343.7,13.2 327.8,14.5 311.8,15.9 C297.7,17.2 283.5,18.6 269.4,19.9 C256.7,21 244,21.9 231.4,23 C227.3,23.3 223.2,23.7 219.1,24.1 C209.2,25.1 199.4,26 189.5,27 C187.1,27.2 184.7,27.5 181.9,27.9 C181.5,23.7 181.2,19.9 180.7,16.2 C180.1,11.1 179.4,6.1 178.8,1 C179.1,0.7 179.4,0.4 179.8,0.1 C180.5,0.1 181.1,0.1 181.8,0 Z" id="指针" stroke="#5CAF88" fill="#5CAF88"></path>
                            <path d="M77.7,39.9 C78,43.3 78.2,46.7 78.5,50.7 C75.4,50.8 72.5,51 69.6,51.1 C49.7,50 29.9,48.9 10,47.7 C8.5,47.6 7.1,47.2 5.6,46.9 C11.1,46.3 16.5,45.5 22,45 C30.5,44.2 39,43.6 47.5,42.8 C57.5,41.9 67.4,40.9 77.4,39.9 L77.7,39.9 Z M76.5,26.8 C76.9,30.5 77.3,34.2 77.7,37.9 L77.5,37.9 C63.7,38.9 50,39.9 36.2,41 C32,41.4 27.8,42.3 23.6,42.7 C18.5,43.2 13.5,43.4 8.4,43.7 C20.8,40.4 33.3,37.1 45.7,33.9 C55.9,31.4 66.2,29.2 76.5,26.8 Z" id="指向针" stroke="#53636F" fill="#53636F"></path>
                            <g id="指针骨架" transform="translate(0.000000, 0.900000)">
                                <path d="M178.7,0 C179.3,5.1 180,10.1 180.6,15.2 C181,18.9 181.4,22.7 181.8,26.9 C184.6,26.6 187,26.3 189.4,26 C199.3,25 209.1,24.1 219,23.1 C223.1,22.7 227.2,22.3 231.3,22 C244,21 256.7,20 269.3,18.9 C283.4,17.6 297.6,16.2 311.7,14.9 C327.7,13.5 343.6,12.2 359.6,10.9 C358,11.6 356.4,12.3 354.7,13 C345.2,13.9 335.6,14.7 326.1,15.6 C321.5,16 316.9,16.5 312.3,16.9 C299.9,17.9 287.6,18.8 275.3,20 C263.1,21.1 251,22.7 238.9,23.9 C230.2,24.8 221.4,25.2 212.7,26 C202.5,26.9 192.4,28 181.8,29.1 C182.8,38.7 183.7,47.8 184.7,56.9 C184,56.9 183.3,56.9 182.6,57 C182.3,54.2 182,51.4 181.7,48.6 C181,42.1 180.2,35.6 179.5,29.3 C171.3,29.9 163.9,30.4 156.6,31.1 C149.4,31.7 142.1,32.4 134.9,33.2 C126.4,34.1 117.9,35.2 109.3,36 C98.8,37.1 88.3,38 77.8,39 L77.6,39 C77.6,38.3 77.6,37.7 77.6,37 L77.8,37 C82.7,36.4 87.6,35.5 92.5,35.1 C104.8,34 117.2,33 129.5,32 C134,31.6 138.4,31.3 142.8,30.8 C152,29.9 161.2,29 170.4,28 C173.4,27.7 176.5,27.2 179.3,26.8 C178.7,17.4 178.2,8.7 177.6,0 C177.9,0 178.3,0 178.7,0 Z" id="路径" stroke="#4F8B6F" fill="#4F8B6F"></path>
                                <path d="M8.3,42.9 C13.4,42.6 18.5,42.4 23.5,41.9 C27.7,41.5 31.9,40.5 36.1,40.2 C49.9,39.1 63.6,38.1 77.4,37.1 C77.4,37.8 77.4,38.4 77.4,39.1 C67.4,40.1 57.5,41.1 47.5,42 C39,42.8 30.5,43.4 22,44.2 C16.5,44.7 11,45.5 5.6,46.1 C3.8,46.1 2,46.1 0.2,46.1 C0.1,45.9 0.1,45.6 0,45.4 C2.8,44.5 5.6,43.7 8.3,42.9 Z" id="路径" stroke="#4A565E" fill="#4A565E"></path>
                            </g>
                        </g>
                    </g>
                    <path d="M283.569746,29.912 C283.469746,24.312 284.369746,19.212 288.269746,14.712 C293.969746,8.012 301.869746,7.612 310.269746,10.012 C319.069746,12.612 322.569746,19.712 322.569746,28.412 C322.569746,32.112 321.869746,36.012 320.769746,39.512 C317.369746,49.912 306.869746,52.112 299.369746,50.612 C289.269746,48.612 283.669746,41.712 283.569746,31.812 C283.569746,31.312 283.569746,30.612 283.569746,29.912 Z M288.869746,30.012 C288.869746,30.212 288.869746,30.412 288.869746,30.512 C289.869746,33.912 290.869746,38.412 292.469746,42.712 C295.069746,49.412 309.869746,49.512 313.069746,44.912 C317.669746,38.212 318.069746,22.512 312.769746,15.912 C309.569746,11.912 305.169746,10.612 300.269746,11.112 C295.369746,11.612 291.769746,14.012 290.569746,19.012 C289.969746,22.212 289.669746,25.412 288.869746,30.012 Z M357.369746,13.812 C360.069746,14.012 362.769746,14.312 365.469746,14.512 C366.069746,15.912 366.169746,16.212 366.769746,17.512 C365.169746,19.212 365.469746,21.712 365.569746,24.212 C365.669746,30.512 365.969746,36.912 365.469746,43.212 C364.869746,51.512 375.969746,56.012 381.669746,52.712 C383.369746,51.812 385.169746,49.512 385.269746,47.712 C385.969746,39.112 386.269746,30.512 386.269746,21.912 C386.269746,20.912 385.469746,19.912 384.369746,18.712 C383.569746,17.812 384.269746,16.512 385.469746,16.612 C387.469746,16.812 389.269746,17.012 391.169746,17.312 C392.169746,17.412 392.569746,18.612 391.969746,19.412 C388.869746,23.112 390.469746,27.912 389.669746,31.912 C388.969746,35.812 389.569746,39.912 389.469746,43.912 C389.369746,53.512 383.069746,58.612 373.269746,56.512 C363.069746,54.312 359.569746,49.512 359.469746,38.912 C359.469746,33.412 359.369746,27.912 359.569746,22.412 C359.669746,19.312 359.369746,16.512 355.769746,15.012 C355.869746,14.912 355.869746,14.712 355.969746,14.612 C356.369746,14.012 356.869746,13.712 357.369746,13.812 Z M177.769746,13.112 C181.269746,12.712 184.769746,12.312 188.269746,11.912 C188.769746,11.812 189.169746,12.012 189.469746,12.412 C189.569746,12.612 189.769746,12.812 189.869746,13.012 C185.169746,14.212 185.469746,17.612 185.669746,20.812 C185.969746,28.412 185.969746,36.112 186.769746,43.612 C187.269746,48.412 190.469746,50.312 195.169746,49.912 C202.569746,49.412 206.569746,45.212 206.669746,37.612 C206.769746,31.412 206.569746,25.312 206.769746,19.112 C206.869746,16.612 206.869746,14.312 205.469746,12.412 C204.869746,11.512 205.469746,10.412 206.469746,10.412 L210.569746,10.412 C211.569746,10.412 212.169746,11.512 211.669746,12.412 C210.469746,14.312 210.869746,16.712 210.769746,19.112 C210.569746,26.612 210.669746,34.112 209.769746,41.412 C208.869746,48.812 205.169746,51.212 196.269746,52.912 C195.169746,53.112 193.969746,52.912 192.769746,52.912 C184.769746,52.912 180.969746,49.212 180.869746,41.012 C180.769746,34.212 180.769746,27.312 180.869746,20.512 C180.969746,17.512 180.769746,14.912 176.769746,14.212 C176.869746,14.012 176.969746,13.812 177.069746,13.612 C176.969746,13.412 177.269746,13.112 177.769746,13.112 Z M261.069746,33.112 C259.769746,40.512 260.069746,43.812 263.069746,46.812 C263.869746,47.612 263.369746,48.912 262.269746,48.912 C259.569746,49.112 256.969746,49.012 254.469746,48.912 C253.469746,48.812 252.869746,47.712 253.469746,46.912 C254.769746,45.112 254.669746,42.912 254.669746,40.512 C254.569746,32.512 254.669746,24.512 254.669746,16.512 C254.669746,13.512 255.369746,10.312 250.469746,9.712 C251.669746,8.812 251.969746,8.212 252.369746,8.212 C258.469746,8.412 264.669746,7.912 270.669746,9.012 C277.169746,10.212 279.469746,14.812 278.669746,21.812 C277.969746,27.412 273.369746,31.712 267.569746,31.912 C265.869746,32.012 264.269746,31.912 262.469746,31.912 C261.669746,32.012 261.169746,32.412 261.069746,33.112 Z M260.569746,28.412 C260.569746,29.012 261.069746,29.512 261.669746,29.712 C265.769746,30.412 268.969746,29.612 271.269746,26.512 C273.269746,23.812 273.469746,15.612 271.169746,13.712 C269.069746,12.012 265.969746,11.412 263.269746,10.812 C262.569746,10.712 260.769746,12.512 260.769746,13.512 C260.469746,18.512 260.569746,23.412 260.569746,28.412 Z M245.169746,44.212 C244.969746,45.812 244.769746,47.412 244.569746,49.112 C244.469746,49.712 243.969746,50.212 243.269746,50.212 L222.169746,50.212 C221.169746,50.212 220.469746,49.012 221.169746,48.212 C222.969746,46.012 222.569746,43.012 222.569746,40.212 C222.569746,32.912 222.469746,25.512 222.569746,18.212 C222.569746,15.812 222.569746,13.712 220.969746,12.112 C220.269746,11.412 220.569746,10.212 221.569746,10.012 C228.669746,8.412 235.669746,9.312 242.869746,9.212 C243.669746,9.212 244.269746,9.912 244.169746,10.712 C244.069746,11.412 243.969746,12.212 243.869746,12.812 C242.069746,13.012 242.269746,13.012 240.469746,13.112 C240.369746,12.812 240.269746,12.412 240.069746,12.112 C239.869746,11.512 239.369746,11.212 238.769746,11.312 C235.669746,11.612 232.469746,12.012 229.069746,12.312 C228.469746,12.412 227.969746,12.912 227.969746,13.612 L227.969746,26.312 C227.969746,26.912 228.369746,27.412 228.869746,27.512 C232.969746,28.612 234.969746,28.512 236.969746,26.312 C237.769746,25.412 239.169746,26.012 239.169746,27.112 L239.169746,30.712 C239.169746,31.912 237.769746,32.412 236.969746,31.512 C235.269746,29.712 232.969746,29.512 230.169746,30.512 C228.369746,31.212 227.469746,32.012 227.569746,34.012 C227.669746,38.012 227.669746,41.912 227.569746,46.612 C227.569746,47.312 228.169746,47.912 228.869746,47.912 C232.269746,47.912 235.369746,48.012 238.569746,47.912 C241.369746,47.812 241.869746,45.712 242.769746,43.512 C243.269746,42.212 245.369746,42.712 245.169746,44.212 Z M156.869746,49.412 C160.069746,39.912 163.369746,30.412 166.269746,20.712 C166.669746,19.512 165.769746,17.912 165.069746,16.112 C164.769746,15.312 165.269746,14.512 166.069746,14.412 C167.969746,14.112 169.969746,13.912 172.069746,13.612 C173.169746,13.512 173.869746,14.712 173.269746,15.612 C165.669746,26.612 164.269746,40.012 158.469746,51.612 C157.769746,53.012 156.769746,54.312 155.769746,55.612 C155.269746,56.312 154.269746,56.312 153.769746,55.612 C152.869746,54.412 151.969746,53.212 151.369746,51.912 C148.069746,43.412 144.869746,34.912 141.669746,26.412 C140.269746,22.712 139.869746,21.712 137.769746,20.312 C136.769746,19.712 137.169746,18.212 138.269746,18.012 C140.969746,17.612 143.369746,17.212 145.769746,16.912 C146.769746,16.712 147.569746,17.812 147.069746,18.712 C145.369746,21.912 147.269746,25.112 148.369746,28.312 C150.769746,35.312 153.169746,42.412 155.669746,49.412 C156.169746,49.312 156.469746,49.412 156.869746,49.412 Z M349.469746,18.812 C349.169746,20.012 347.469746,20.112 347.069746,18.912 C347.069746,18.912 347.069746,18.912 347.069746,18.912 C345.769746,15.012 342.969746,12.712 339.169746,13.512 C337.269746,13.912 334.669746,15.212 334.069746,16.812 C332.969746,19.412 332.469746,22.912 335.169746,25.112 C338.869746,28.112 343.169746,30.512 346.669746,33.712 C348.769746,35.712 350.869746,38.612 351.369746,41.312 C352.669746,48.212 348.369746,52.812 341.269746,52.912 C339.169746,52.912 336.969746,52.612 334.869746,52.212 C327.869746,50.612 326.569746,49.212 328.669746,43.212 C329.069746,42.112 330.669746,42.112 331.069746,43.212 C331.069746,43.312 331.169746,43.412 331.169746,43.512 C332.869746,49.512 336.669746,51.812 342.569746,49.712 C344.169746,49.112 346.169746,47.012 346.169746,45.612 C346.069746,43.012 345.169746,40.112 343.669746,38.012 C342.269746,36.112 339.569746,35.312 337.469746,33.912 C333.869746,31.612 330.169746,29.312 328.569746,24.912 C325.869746,17.512 330.169746,11.112 338.169746,10.912 C339.169746,10.912 340.169746,10.912 341.169746,10.912 C349.069746,11.112 350.969746,12.312 349.469746,18.812 Z" id="字母" stroke="#5C4749" stroke-width="0.25" fill="#594546"></path>
                </g>
            </g>
        </g>
    </g>
</svg>